<?xml version="1.0" encoding="UTF-8"?>
<svg version="1.1" xmlns="http://www.w3.org/2000/svg" width="500" height="500">
<path d="M0 0 C1.27037109 -0.0299707 1.27037109 -0.0299707 2.56640625 -0.06054688 C8.14719314 -0.05627368 12.23503906 0.98321899 17.21923828 3.49853516 C19.24790068 4.57388039 19.24790068 4.57388039 22.125 5.25 C29.17127241 8.0391495 34.61730116 13.47570476 39.125 19.4375 C38.795 20.0975 38.465 20.7575 38.125 21.4375 C39.115 21.4375 40.105 21.4375 41.125 21.4375 C41.125 22.0975 41.125 22.7575 41.125 23.4375 C43.99576881 23.60154393 45.9322045 23.5146182 48.625 22.4375 C51.3177955 21.3603818 53.25423119 21.27345607 56.125 21.4375 C56.125 21.1075 56.125 20.7775 56.125 20.4375 C58.45794775 20.39508277 60.79202567 20.39657063 63.125 20.4375 C63.455 20.7675 63.785 21.0975 64.125 21.4375 C65.135625 21.581875 66.14625 21.72625 67.1875 21.875 C79.70526778 23.66325254 88.31060793 28.13159908 97.125 37.4375 C98.4140625 39.71875 98.4140625 39.71875 99.125 41.4375 C99.785 41.4375 100.445 41.4375 101.125 41.4375 C101.125 42.4275 101.125 43.4175 101.125 44.4375 C101.785 44.7675 102.445 45.0975 103.125 45.4375 C104.125 47.1796875 104.125 47.1796875 105.125 49.3125 C106.33701839 51.87857018 107.53769132 54.05653698 109.125 56.4375 C109.35205078 58.43041992 109.35205078 58.43041992 109.3203125 60.66796875 C109.31386719 61.47041016 109.30742187 62.27285156 109.30078125 63.09960938 C109.28402344 63.93298828 109.26726562 64.76636719 109.25 65.625 C109.23646484 66.8924707 109.23646484 66.8924707 109.22265625 68.18554688 C109.19910703 70.26965243 109.16323647 72.35361217 109.125 74.4375 C109.74431396 74.62675049 110.36362793 74.81600098 111.00170898 75.01098633 C116.15938282 76.60731317 120.58476266 78.50526339 125.125 81.4375 C125.455 82.0975 125.785 82.7575 126.125 83.4375 C127.011875 83.994375 127.89875 84.55125 128.8125 85.125 C132.58056004 87.55188613 135.66830814 90.68276882 138.125 94.4375 C138.125 95.4275 138.125 96.4175 138.125 97.4375 C138.785 97.4375 139.445 97.4375 140.125 97.4375 C140.84114583 99.16276042 141.55729167 100.88802083 142.2734375 102.61328125 C143.19306692 104.70283932 143.19306692 104.70283932 145.125 107.4375 C145.125 109.4375 145.125 111.4375 145.125 113.4375 C146.02331016 115.73980766 146.02331016 115.73980766 147.125 117.4375 C146.795 117.7675 146.465 118.0975 146.125 118.4375 C146.05311529 120.73331781 146.12853568 123.01267069 146.1875 125.30859375 C146.125 127.4375 146.125 127.4375 145.125 129.4375 C145.785 129.7675 146.445 130.0975 147.125 130.4375 C146.465 131.4275 145.805 132.4175 145.125 133.4375 C145.14175781 134.19933594 145.15851563 134.96117187 145.17578125 135.74609375 C145.10963621 139.25178099 143.92246674 141.40149954 142.3125 144.5 C141.79042969 145.52222656 141.26835937 146.54445312 140.73046875 147.59765625 C139.34002156 150.05715772 137.82806879 152.19479605 136.125 154.4375 C135.41985154 156.58483927 135.41985154 156.58483927 135.125 158.4375 C135.785 158.7675 136.445 159.0975 137.125 159.4375 C132.31475508 161.04091497 128.11414391 159.71316306 123.3125 158.375 C116.71820928 156.6686952 110.36102191 156.58674713 104.125 159.4375 C102.45833333 159.4375 100.79166667 159.4375 99.125 159.4375 C98.465 160.0975 97.805 160.7575 97.125 161.4375 C94.14005506 162.99959218 91.10698257 164.44369756 88.0703125 165.90234375 C85.51043052 167.23660585 83.41979726 168.71382941 81.125 170.4375 C80.465 170.4375 79.805 170.4375 79.125 170.4375 C79.125 171.0975 79.125 171.7575 79.125 172.4375 C77.33203125 173.98828125 77.33203125 173.98828125 74.9375 175.75 C70.72253329 178.94076919 67.08247121 182.34614515 63.46875 186.20703125 C54.37574341 195.65406883 42.70499254 206.32892918 29.125 207.4375 C28.465 207.7675 27.805 208.0975 27.125 208.4375 C20.59196599 208.94989482 16.15498514 207.37979817 10.6875 203.875 C8.19614229 199.98848197 8.81650831 195.92776788 9.125 191.4375 C8.465 191.4375 7.805 191.4375 7.125 191.4375 C7.455 190.7775 7.785 190.1175 8.125 189.4375 C8.558125 188.014375 8.558125 188.014375 9 186.5625 C10.0987458 183.51042832 10.8597016 181.72752873 13.125 179.4375 C15.796875 179.15234375 15.796875 179.15234375 18.875 179.375 C28.04789478 179.65029696 33.87481233 175.57704703 41.125 170.4375 C42.011875 169.81875 42.89875 169.2 43.8125 168.5625 C49.89379975 162.97427861 53.02245409 157.64956606 54.125 149.4375 C54.785 149.4375 55.445 149.4375 56.125 149.4375 C56.125 147.1275 56.125 144.8175 56.125 142.4375 C55.465 142.1075 54.805 141.7775 54.125 141.4375 C53.691875 140.4784375 53.691875 140.4784375 53.25 139.5 C51.82097209 136.88011549 50.9013262 136.49426523 48.125 135.4375 C44.95033605 135.08374707 44.95033605 135.08374707 41.5625 135.125 C39.85900391 135.09986328 39.85900391 135.09986328 38.12109375 135.07421875 C34.73359095 135.48495899 34.24085357 135.92786257 32.125 138.4375 C30.49647847 139.46545184 28.84805322 140.46213834 27.1875 141.4375 C21.87668531 144.73020511 17.47410064 148.55085269 13.01000977 152.88085938 C9.31346632 156.4375 9.31346632 156.4375 7.125 156.4375 C6.8878125 157.00984375 6.650625 157.5821875 6.40625 158.171875 C4.84906762 160.9254292 3.00007203 162.60545634 0.625 164.6875 C-0.1690625 165.39390625 -0.963125 166.1003125 -1.78125 166.828125 C-3.875 168.4375 -3.875 168.4375 -5.875 168.4375 C-5.34060077 163.89510652 -3.53200118 161.1104134 -0.875 157.4375 C-0.1015625 156.261875 -0.1015625 156.261875 0.6875 155.0625 C1.161875 154.52625 1.63625 153.99 2.125 153.4375 C3.115 153.4375 4.105 153.4375 5.125 153.4375 C5.2796875 152.509375 5.2796875 152.509375 5.4375 151.5625 C6.125 149.4375 6.125 149.4375 9.125 147.4375 C10.65862758 145.70347842 12.08750144 143.90603152 13.52734375 142.09375 C15.26028274 140.29725579 16.90572845 139.52848643 19.125 138.4375 C19.393125 137.73625 19.66125 137.035 19.9375 136.3125 C22.92103413 129.08920684 29.99605153 123.48410772 35.5 118.125 C38.85836924 114.68666959 41.98043063 111.07048121 45.125 107.4375 C46.93123675 105.38968838 48.73803405 103.34238673 50.546875 101.296875 C52.18552447 99.4219103 52.18552447 99.4219103 53.703125 97.203125 C54.17234375 96.62046875 54.6415625 96.0378125 55.125 95.4375 C55.785 95.4375 56.445 95.4375 57.125 95.4375 C57.22941406 94.8496875 57.33382812 94.261875 57.44140625 93.65625 C58.22585505 91.11015332 59.2590177 89.87767655 61.0625 87.9375 C63.25963898 85.56221462 64.78460415 83.39025608 66.125 80.4375 C67.115 80.4375 68.105 80.4375 69.125 80.4375 C68.795 79.4475 68.465 78.4575 68.125 77.4375 C69.12999132 74.80906116 69.57307371 73.71346315 72.125 72.4375 C72.2330023 70.33445523 72.31058987 68.22983091 72.375 66.125 C72.42140625 64.95324219 72.4678125 63.78148437 72.515625 62.57421875 C72.43528286 59.38546671 72.43528286 59.38546671 70.31640625 57.546875 C67.03421944 55.88530449 64.76315197 56.00585485 61.125 56.4375 C51.94406367 60.34789881 45.6523524 68.39771469 40.125 76.4375 C39.135 76.9325 39.135 76.9325 38.125 77.4375 C37.07855934 79.07540712 36.0851817 80.74758021 35.125 82.4375 C33.57633533 85.10120324 32.30615464 87.25634536 30.125 89.4375 C29.26176497 90.9204935 28.43147927 92.42289258 27.625 93.9375 C26.25195012 96.51615465 25.20013623 98.36236377 23.125 100.4375 C22.28210929 101.87848148 21.47297243 103.33943333 20.6875 104.8125 C19.03667266 107.90715438 17.22672514 110.63519982 15.125 113.4375 C14.45150839 115.10142045 13.7840841 116.76782028 13.125 118.4375 C12.465 119.0975 11.805 119.7575 11.125 120.4375 C10.27515318 122.02219787 9.46729311 123.62968224 8.6875 125.25 C6.4292237 129.85954045 3.97270193 134.16594711 1.125 138.4375 C0.465 138.4375 -0.195 138.4375 -0.875 138.4375 C-0.936875 139.22125 -0.99875 140.005 -1.0625 140.8125 C-2.1782335 145.79038793 -4.47806227 149.96203694 -6.875 154.4375 C-7.865 154.4375 -8.855 154.4375 -9.875 154.4375 C-10.205 156.0875 -10.535 157.7375 -10.875 159.4375 C-11.535 159.4375 -12.195 159.4375 -12.875 159.4375 C-13.2153125 160.241875 -13.2153125 160.241875 -13.5625 161.0625 C-16.60212442 166.56277276 -20.90888278 170.49117705 -25.63671875 174.515625 C-28.09682891 176.6279709 -30.48342195 178.8104754 -32.875 181 C-44.47420805 191.4375 -44.47420805 191.4375 -48.875 191.4375 C-48.875 192.0975 -48.875 192.7575 -48.875 193.4375 C-52.34 195.4175 -52.34 195.4175 -55.875 197.4375 C-58.06544036 193.09210364 -58.06544036 193.09210364 -57.21289062 190.16162109 C-56.82294922 189.39414551 -56.43300781 188.62666992 -56.03125 187.8359375 C-53.53142862 182.15242104 -53.26000339 177.2127651 -53.375 171.0625 C-53.38660156 169.55284668 -53.38660156 169.55284668 -53.3984375 168.01269531 C-53.55459071 161.30461365 -54.35655628 155.75162485 -57 149.546875 C-57.875 147.4375 -57.875 147.4375 -57.875 144.4375 C-58.535 143.7775 -59.195 143.1175 -59.875 142.4375 C-61.73468657 137.99491541 -62.31965556 134.23978004 -61.875 129.4375 C-60.5625 127.4375 -60.5625 127.4375 -58.875 125.4375 C-57.87015117 123.10625071 -56.86977753 120.77306463 -55.875 118.4375 C-55.215 117.7775 -54.555 117.1175 -53.875 116.4375 C-53.875 115.7775 -53.875 115.1175 -53.875 114.4375 C-56.73258028 113.80786367 -58.99063933 113.33007502 -61.875 113.4375 C-66.34273038 116.58521913 -69.20481884 121.26086115 -70.875 126.4375 C-71.04920619 128.82606046 -71.01453383 131.07148662 -70.8203125 133.45703125 C-70.875 135.4375 -70.875 135.4375 -72.875 138.4375 C-73.865 138.4375 -74.855 138.4375 -75.875 138.4375 C-75.95363281 138.98792969 -76.03226562 139.53835937 -76.11328125 140.10546875 C-77.14537718 143.26527013 -78.92207835 145.2151958 -81.0625 147.75 C-81.87976563 148.72066406 -82.69703125 149.69132813 -83.5390625 150.69140625 C-84.30992187 151.59761719 -85.08078125 152.50382813 -85.875 153.4375 C-86.41898437 154.10652344 -86.96296875 154.77554688 -87.5234375 155.46484375 C-90.61082977 159.22600395 -93.97091246 162.41264603 -97.68359375 165.5546875 C-99.22636326 166.88020426 -100.73700998 168.24357256 -102.22265625 169.6328125 C-114.34927728 180.97149143 -135.04998596 195.16464698 -152.421875 195.484375 C-157.35267857 194.95982143 -157.35267857 194.95982143 -158.875 193.4375 C-159.33147287 188.07394374 -158.25456629 183.89908273 -156.60546875 178.8046875 C-155.75339929 176.04343568 -155.29295798 173.29354618 -154.875 170.4375 C-153.875 167.4375 -153.875 167.4375 -151.875 165.4375 C-150.58698329 163.19728612 -149.3934741 160.91622657 -148.19140625 158.62890625 C-146.93937659 156.54466696 -145.66769961 155.06295067 -143.875 153.4375 C-144.79670591 150.38878045 -145.70058085 147.72093112 -147.375 145 C-149.18649482 141.90536301 -149.99274735 138.90349253 -150.875 135.4375 C-151.14328613 134.48206299 -151.14328613 134.48206299 -151.41699219 133.50732422 C-152.28601393 129.58005003 -152.10187566 125.56879234 -152.125 121.5625 C-152.1559375 120.23412109 -152.1559375 120.23412109 -152.1875 118.87890625 C-152.21943261 113.5222116 -151.60654055 110.16941116 -148.875 105.4375 C-148.71644531 104.591875 -148.55789062 103.74625 -148.39453125 102.875 C-147.73950389 99.80178894 -146.40862521 97.96752171 -144.5625 95.4375 C-143.96824219 94.6125 -143.37398437 93.7875 -142.76171875 92.9375 C-141.82779297 91.7 -141.82779297 91.7 -140.875 90.4375 C-140.24851562 89.59574219 -139.62203125 88.75398438 -138.9765625 87.88671875 C-133.72318037 81.7642827 -126.84372106 76.9316352 -118.875 75.4375 C-115.99285113 74.55535113 -115.99285113 74.55535113 -113.875 73.4375 C-113.60877842 71.50739352 -113.35115483 69.57532574 -113.15625 67.63671875 C-111.46360694 54.40119036 -104.5733927 40.90462803 -94.359375 32.32421875 C-86.44322437 26.27654501 -79.26550464 23.77520404 -69.625 21.8671875 C-67.85846216 21.59366145 -67.85846216 21.59366145 -66.875 20.4375 C-64.77368079 20.31147946 -62.66756212 20.2617078 -60.5625 20.25 C-59.41136719 20.23582031 -58.26023437 20.22164062 -57.07421875 20.20703125 C-53.92635184 20.43380066 -52.57702979 20.98670955 -49.875 22.4375 C-47.00482654 23.61206511 -47.00482654 23.61206511 -43.875 23.4375 C-41.63596167 21.4523417 -39.96740907 19.68070133 -38.125 17.375 C-33.03057722 11.42924611 -27.55873554 5.53452716 -19.52734375 3.984375 C-16.70318362 3.51365109 -16.70318362 3.51365109 -13.6796875 1.90234375 C-9.18703947 -0.091284 -4.85043035 -0.04023736 0 0 Z " fill="#F70100" transform="translate(257.875,85.5625)"/>
<path d="M0 0 C0.33 0.99 0.66 1.98 1 3 C1.66 3 2.32 3 3 3 C3 5.31 3 7.62 3 10 C2.34 10 1.68 10 1 10 C1 11.65 1 13.3 1 15 C0.34 15 -0.32 15 -1 15 C-1.33 15.99 -1.66 16.98 -2 18 C-5.82085193 23.43736621 -10.41313195 28.48397481 -17 30 C-17.99 30.66 -18.98 31.32 -20 32 C-24.87122121 32.62030532 -29.65293371 32.44522479 -34 30 C-34.33 29.34 -34.66 28.68 -35 28 C-35.0825 28.515625 -35.165 29.03125 -35.25 29.5625 C-36.12253735 32.39824638 -37.44841306 34.68175568 -38.96484375 37.21875 C-43.85599807 45.63522688 -44.93686594 54.46240256 -43 64 C-41.48763107 69.33416611 -38.43729773 71.64589609 -33.75 74.4375 C-27.42435959 77.5294797 -23.4772333 78.11305979 -16.8515625 75.9921875 C-6.85816122 72.13160202 1.75934515 66.38673582 9.2421875 58.6953125 C11 57 11 57 13 57 C13.66 55.68 14.32 54.36 15 53 C15.66 53 16.32 53 17 53 C17.66 51.68 18.32 50.36 19 49 C19.66 49 20.32 49 21 49 C21.66 47.68 22.32 46.36 23 45 C23.66 45 24.32 45 25 45 C25.66 43.68 26.32 42.36 27 41 C27.66 41 28.32 41 29 41 C29.33 40.34 29.66 39.68 30 39 C38.3052103 31.40161611 47.3716404 23.52826691 59.0625 22.8125 C59.701875 22.874375 60.34125 22.93625 61 23 C61.33 22.34 61.66 21.68 62 21 C62.99 21 63.98 21 65 21 C65.9590625 20.96519531 65.9590625 20.96519531 66.9375 20.9296875 C67.618125 20.91164062 68.29875 20.89359375 69 20.875 C69.680625 20.85179687 70.36125 20.82859375 71.0625 20.8046875 C73 21 73 21 76 23 C76.33 22.34 76.66 21.68 77 21 C77 21.66 77 22.32 77 23 C78.546875 22.9071875 78.546875 22.9071875 80.125 22.8125 C84.31238457 23.01511538 86.39504044 23.96241416 90 26 C90.82693359 26.27287842 91.65386719 26.54575684 92.50585938 26.8269043 C96.37823175 28.6482384 97.29752572 31.33970147 99.02734375 35.11181641 C100.66633544 39.97860148 100.64704511 44.59773415 100.5 49.6875 C100.50257813 50.68072266 100.50515625 51.67394531 100.5078125 52.69726562 C100.42955498 58.58614436 99.70596843 62.77071601 97 68 C96.2575 69.794375 96.2575 69.794375 95.5 71.625 C90.70339734 82.41735599 82.70674066 90.97438704 72 96 C70.7666593 96.72208409 69.53755111 97.45143988 68.3125 98.1875 C65 100 65 100 62 100 C62.061875 101.6396875 62.061875 101.6396875 62.125 103.3125 C62 107 62 107 60 110 C60.061875 111.5778125 60.061875 111.5778125 60.125 113.1875 C59.96743401 117.99326266 58.31744386 120.89795521 56 125 C55.68289063 125.64839844 55.36578125 126.29679687 55.0390625 126.96484375 C51.71252063 133.48036373 47.46781775 139.15352517 42 144 C41.34 144 40.68 144 40 144 C40 144.66 40 145.32 40 146 C32.03676826 152.61759304 24.27727899 155.64232994 14 155 C14 155.66 14 156.32 14 157 C13.01 157 12.02 157 11 157 C11 156.34 11 155.68 11 155 C8.69 155 6.38 155 4 155 C4 155.66 4 156.32 4 157 C3.01 157 2.02 157 1 157 C1 156.34 1 155.68 1 155 C-0.2375 155.020625 -1.475 155.04125 -2.75 155.0625 C-5.6640825 155.06766681 -8.20953327 154.93015558 -11 154 C-11.33 155.32 -11.66 156.64 -12 158 C-12.66 158 -13.32 158 -14 158 C-14.24621094 158.57878906 -14.49242187 159.15757812 -14.74609375 159.75390625 C-18.52512657 166.5232018 -26.82195964 172.27548833 -34 175 C-35.66666667 175 -37.33333333 175 -39 175 C-39.66 175.66 -40.32 176.32 -41 177 C-41.66 177 -42.32 177 -43 177 C-43.721875 177.165 -44.44375 177.33 -45.1875 177.5 C-51.29361537 178.58553162 -56.1215771 177.80874551 -62 176 C-62.99 176 -63.98 176 -65 176 C-71.55140262 174.32405979 -78.14908226 171.85091774 -83 167 C-83.969375 166.401875 -84.93875 165.80375 -85.9375 165.1875 C-89.1175207 162.91605664 -90.06939494 161.29811698 -92 158 C-93.91334751 156.19047755 -95.91693787 154.62015943 -98 153 C-98.72147217 153.32307129 -99.44294434 153.64614258 -100.1862793 153.97900391 C-104.68089979 155.60993691 -109.07439674 155.36871187 -113.8125 155.375 C-114.77220703 155.39949219 -115.73191406 155.42398438 -116.72070312 155.44921875 C-123.31002403 155.47620573 -127.30789041 154.29949404 -133 151 C-133.825 150.855625 -134.65 150.71125 -135.5 150.5625 C-139.46398089 149.6706043 -142.76746718 147.42439961 -146 145 C-146.33 144.34 -146.66 143.68 -147 143 C-147.99 142.34 -148.98 141.68 -150 141 C-150 140.34 -150 139.68 -150 139 C-150.66 139 -151.32 139 -152 139 C-152 138.34 -152 137.68 -152 137 C-152.59554687 136.77828125 -153.19109375 136.5565625 -153.8046875 136.328125 C-159.43002846 132.92489381 -162.2630686 124.07925991 -164 118 C-164.37125 117.154375 -164.7425 116.30875 -165.125 115.4375 C-166.07117939 112.80171456 -166.15876134 110.77832339 -166 108 C-166.33 108 -166.66 108 -167 108 C-167.33 104.7 -167.66 101.4 -168 98 C-168.66 98 -169.32 98 -170 98 C-170.66 97.34 -171.32 96.68 -172 96 C-172.92941406 95.70351563 -173.85882813 95.40703125 -174.81640625 95.1015625 C-182.97203551 92.27961471 -189.96735979 84.86404478 -195 78 C-196.125 75.5 -196.125 75.5 -197 73 C-198.31872555 70.95823489 -199.67639867 68.95329204 -201.07421875 66.96484375 C-202 65 -202 65 -201.70703125 62.87890625 C-201 61 -201 61 -200 59 C-198.700625 59.0825 -197.40125 59.165 -196.0625 59.25 C-191.38267899 59.27952568 -188.14804201 58.02848105 -184.04296875 55.875 C-182 55 -182 55 -178 55 C-177.34 54.34 -176.68 53.68 -176 53 C-175.34 53.33 -174.68 53.66 -174 54 C-174 53.34 -174 52.68 -174 52 C-172.87722656 51.43152344 -171.75445312 50.86304688 -170.59765625 50.27734375 C-162.50659324 46.12738518 -154.82128364 42.09303272 -148 36 C-147.5059668 35.56333008 -147.01193359 35.12666016 -146.50292969 34.67675781 C-139.68182656 28.85100414 -139.68182656 28.85100414 -134 22 C-133.34 22 -132.68 22 -132 22 C-131.67322266 21.22849609 -131.67322266 21.22849609 -131.33984375 20.44140625 C-129.44136411 16.98207747 -127.01634673 14.01840535 -124.5625 10.9375 C-124.07201172 10.31294922 -123.58152344 9.68839844 -123.07617188 9.04492188 C-120.83318751 6.20865149 -118.59559152 3.52442743 -116 1 C-113.40420153 1.9921957 -112.23548746 2.53693324 -110.953125 5.05859375 C-110.72109375 5.84363281 -110.4890625 6.62867188 -110.25 7.4375 C-110.00765625 8.21996094 -109.7653125 9.00242188 -109.515625 9.80859375 C-109 12 -109 12 -109 15 C-108.01 15.99 -108.01 15.99 -107 17 C-107 18.32 -107 19.64 -107 21 C-106.505 21.99 -106.505 21.99 -106 23 C-105.9017811 25.41502939 -105.87026074 27.83297881 -105.875 30.25 C-105.87113281 32.20679688 -105.87113281 32.20679688 -105.8671875 34.203125 C-105.98580083 37.59407074 -106.21033767 40.70141052 -107 44 C-107.99 44.495 -107.99 44.495 -109 45 C-109.38218767 46.65614657 -109.71395102 48.32457024 -110 50 C-110.495 50.99 -110.495 50.99 -111 52 C-111.66 52 -112.32 52 -113 52 C-113.165 52.680625 -113.33 53.36125 -113.5 54.0625 C-116.06638734 59.08834188 -120.62921972 63.20973991 -126 65 C-126.556875 65.33 -127.11375 65.66 -127.6875 66 C-132.34187324 68.01270194 -136.52836783 68.35428182 -141.375 67.1875 C-144.97091213 65.56077785 -147.22867367 62.77132633 -150 60 C-149.319375 59.29875 -148.63875 58.5975 -147.9375 57.875 C-145.64710348 55.1170551 -145.64710348 55.1170551 -146.25 51.6875 C-146.4975 50.800625 -146.745 49.91375 -147 49 C-150.36852515 48.9434891 -150.36852515 48.9434891 -154 50 C-156.72180883 53.06002176 -158.35432013 56.96450081 -159 61 C-158.34 61 -157.68 61 -157 61 C-156.979375 61.886875 -156.95875 62.77375 -156.9375 63.6875 C-155.43377665 69.00065582 -151.39488457 70.63149453 -146.8125 73.25 C-141.20144437 75.57181612 -134.81437985 75.86890781 -129 74 C-128.38825928 73.864729 -127.77651855 73.72945801 -127.14624023 73.59008789 C-124.86723076 72.96349639 -123.00229393 72.09243915 -120.91015625 70.99609375 C-119.74214478 70.38495728 -119.74214478 70.38495728 -118.55053711 69.76147461 C-117.72948486 69.32456299 -116.90843262 68.88765137 -116.0625 68.4375 C-115.22017822 67.99220947 -114.37785645 67.54691895 -113.51000977 67.08813477 C-107.31378445 63.77974564 -101.30444562 60.25262353 -95.37109375 56.49609375 C-93 55 -93 55 -91 54 C-89.32346641 52.67909475 -87.65975389 51.34192868 -86 50 C-84.44224402 48.74409293 -82.8794141 47.49446232 -81.3125 46.25 C-80.54550781 45.63640625 -79.77851563 45.0228125 -78.98828125 44.390625 C-77 43 -77 43 -75 43 C-74.01 42.01 -74.01 42.01 -73 41 C-72.34 41.33 -71.68 41.66 -71 42 C-71.75 46.75 -71.75 46.75 -74 49 C-74.33 49.99 -74.66 50.98 -75 52 C-75.66 52 -76.32 52 -77 52 C-77.4640625 53.6396875 -77.4640625 53.6396875 -77.9375 55.3125 C-78.58337897 57.55407994 -79.2623117 59.7869351 -80 62 C-80.99 62.495 -80.99 62.495 -82 63 C-82.36548445 64.32488113 -82.6937566 65.66018514 -83 67 C-83.556875 67.99 -83.556875 67.99 -84.125 69 C-85.19223228 71.43938807 -84.87822019 72.54098346 -84 75 C-81.54775306 74.89386164 -81.54775306 74.89386164 -79 74 C-77.84979475 71.75256244 -77.84979475 71.75256244 -77 69 C-73.44444444 63.22222222 -73.44444444 63.22222222 -71 62 C-70.10883102 60.38904068 -69.21849079 58.77761807 -68.33203125 57.1640625 C-65.64582415 52.79996065 -62.25751475 48.94398903 -59 45 C-58.48566406 44.34902344 -57.97132813 43.69804687 -57.44140625 43.02734375 C-56.34110274 41.64625061 -55.17743324 40.3159548 -54 39 C-53.34 39 -52.68 39 -52 39 C-51.93296875 38.45214844 -51.8659375 37.90429688 -51.796875 37.33984375 C-50.66652099 34.02081409 -48.63873501 32.11024844 -46.25 29.5625 C-45.38890625 28.63566406 -44.5278125 27.70882812 -43.640625 26.75390625 C-41.12759123 24.13306482 -38.57366012 21.56114638 -36 19 C-35.03126953 17.99646484 -35.03126953 17.99646484 -34.04296875 16.97265625 C-24.53372231 7.18313728 -14.3195154 -1.37101743 0 0 Z M-201 63 C-200 65 -200 65 -200 65 Z " fill="#F70100" transform="translate(303,228)"/>
<path d="M0 0 C1.98 0.66 3.96 1.32 6 2 C5.67 4.31 5.34 6.62 5 9 C4.34 9 3.68 9 3 9 C2.7215625 10.423125 2.7215625 10.423125 2.4375 11.875 C-0.07500988 20.56409665 -7.31598926 27.75658851 -12.984375 34.5546875 C-14.99632694 36.93422169 -14.99632694 36.93422169 -16.640625 39.3203125 C-17.31351562 40.15175781 -17.31351562 40.15175781 -18 41 C-18.66 41 -19.32 41 -20 41 C-20.10441406 41.58265625 -20.20882813 42.1653125 -20.31640625 42.765625 C-21.10293617 45.33645423 -22.17565891 46.7340058 -23.9375 48.75 C-24.46214844 49.36359375 -24.98679687 49.9771875 -25.52734375 50.609375 C-27 52 -27 52 -29 52 C-29.26425781 52.58136719 -29.52851563 53.16273438 -29.80078125 53.76171875 C-33.23353676 60.16878359 -39.46382968 66.32566095 -45 71 C-45.66 71 -46.32 71 -47 71 C-48 68 -48 68 -46.890625 65.44140625 C-46.34921875 64.49136719 -45.8078125 63.54132813 -45.25 62.5625 C-44.71890625 61.61503906 -44.1878125 60.66757813 -43.640625 59.69140625 C-42 57 -42 57 -40.421875 54.8984375 C-39.00958555 53.01279829 -38.00936071 51.18636316 -37 49.0625 C-35.0197409 45.01197002 -33.02527084 41.23032501 -30.125 37.75 C-28.33945022 35.43928852 -27.09283924 33.37651184 -25.75 30.8125 C-23.2880889 26.25228313 -20.2685213 22.39327571 -16.96875 18.41015625 C-15.23223842 16.28430775 -13.64229521 14.11743154 -12.0625 11.875 C-8.65881684 7.25504224 -4.3848028 3.66374634 0 0 Z " fill="#F80403" transform="translate(318,149)"/>
<path d="M0 0 C0.86625 -0.01675781 1.7325 -0.03351563 2.625 -0.05078125 C5 0.3125 5 0.3125 6.8125 1.58203125 C8 3.3125 8 3.3125 8 7.3125 C8.66 7.6425 9.32 7.9725 10 8.3125 C10.33 7.6525 10.66 6.9925 11 6.3125 C13.52902654 8.51165351 14.34715551 10.04827755 15 13.3125 C15.33 13.6425 15.66 13.9725 16 14.3125 C16.04080783 16.31208364 16.04254356 18.31295254 16 20.3125 C15.34 20.3125 14.68 20.3125 14 20.3125 C14.33 21.3025 14.66 22.2925 15 23.3125 C10.16824197 28.54690454 10.16824197 28.54690454 6 29.3125 C5.27941406 29.45171875 4.55882812 29.5909375 3.81640625 29.734375 C0.29045975 30.24768437 -2.32143113 30.52840828 -5.75 29.4375 C-9.11246769 26.26183607 -10.96933629 22.42849914 -13 18.3125 C-13.33 17.6525 -13.66 16.9925 -14 16.3125 C-14.53561212 13.09882729 -14.43059031 11.04559363 -12.765625 8.2109375 C-9.10679027 3.22985061 -6.51836149 0.02909983 0 0 Z M-1 7.3125 C-1 7.9725 -1 8.6325 -1 9.3125 C-1.99 9.6425 -2.98 9.9725 -4 10.3125 C-5.02524328 13.5624712 -5.02524328 13.5624712 -5 17.3125 C-2.59524336 20.55259686 -2.59524336 20.55259686 1 22.3125 C4.31950927 21.92907799 4.31950927 21.92907799 7 20.3125 C7.33 19.6525 7.66 18.9925 8 18.3125 C6.02 18.6425 4.04 18.9725 2 19.3125 C1 17.3125 1 17.3125 0 14.3125 C0.66 13.6525 1.32 12.9925 2 12.3125 C2.33 11.3225 2.66 10.3325 3 9.3125 C2.34 9.3125 1.68 9.3125 1 9.3125 C1 8.6525 1 7.9925 1 7.3125 C0.34 7.3125 -0.32 7.3125 -1 7.3125 Z M5 7.3125 C5.33 7.9725 5.66 8.6325 6 9.3125 C6.33 8.6525 6.66 7.9925 7 7.3125 C6.34 7.3125 5.68 7.3125 5 7.3125 Z M-6 11.3125 C-6 12.9625 -6 14.6125 -6 16.3125 C-5.67 16.3125 -5.34 16.3125 -5 16.3125 C-5 14.6625 -5 13.0125 -5 11.3125 C-5.33 11.3125 -5.66 11.3125 -6 11.3125 Z " fill="#3B3C3C" transform="translate(156,73.6875)"/>
<path d="M0 0 C0.66 0.66 1.32 1.32 2 2 C3.16628283 2.93797746 4.33298848 3.87542931 5.5 4.8125 C8.41356854 7.27782722 9.99948887 9.22029129 11 13 C10.34 13 9.68 13 9 13 C9 14.65 9 16.3 9 18 C9.66 18.33 10.32 18.66 11 19 C10.34 19.66 9.68 20.32 9 21 C7.5196573 22.99211832 6.07503017 25.00748393 4.6328125 27.02734375 C2.90427748 29.11564563 1.32067806 30.59658599 -1 32 C-3.75 31.1875 -3.75 31.1875 -6 30 C-6 29.34 -6 28.68 -6 28 C-6.53109375 27.79632813 -7.0621875 27.59265625 -7.609375 27.3828125 C-11.02874104 25.40494391 -13.51337921 22.69673101 -16.25 19.875 C-16.80429688 19.31167969 -17.35859375 18.74835938 -17.9296875 18.16796875 C-19.29104485 16.78313972 -20.64614859 15.39216796 -22 14 C-19.89907058 8.44090357 -17.12433166 4.20270729 -12 1 C-8.1633469 -0.50725658 -4.05158752 -0.19604456 0 0 Z M-5 7 C-7.04119788 8.61594832 -9.04072937 10.2856382 -11 12 C-11.23186004 14.10214596 -11.23186004 14.10214596 -9.57421875 15.47265625 C-8.95160156 15.99730469 -8.32898438 16.52195312 -7.6875 17.0625 C-7.07261719 17.58972656 -6.45773438 18.11695313 -5.82421875 18.66015625 C-3.93309283 20.19270003 -3.93309283 20.19270003 -1 21 C0.32 19.35 1.64 17.7 3 16 C1.4169423 11.7257442 -1.50568404 9.73468206 -5 7 Z " fill="#3C3B3C" transform="translate(126,104)"/>
<path d="M0 0 C5.70832287 1.84681034 11.08838563 5.66204032 14 11 C14.71758875 15.1261353 14.23184765 16.64168999 11.9375 20.1875 C9.05288994 23.34565067 5.99311969 24.59066364 2 26 C2 28.64 2 31.28 2 34 C0.1875 34.625 0.1875 34.625 -2 35 C-2.99 34.34 -3.98 33.68 -5 33 C-5 32.34 -5 31.68 -5 31 C-5.66 31 -6.32 31 -7 31 C-7 28.33333333 -7 25.66666667 -7 23 C-10.11785113 23.64644661 -10.11785113 23.64644661 -11 26 C-11.66 26 -12.32 26 -13 26 C-14.95216435 24.04783565 -15.84826645 22.46800047 -17 20 C-16.21625 19.236875 -15.4325 18.47375 -14.625 17.6875 C-11.92742283 15.09108195 -11.92742283 15.09108195 -10 12 C-8.68330897 10.25812749 -7.34826441 8.53005006 -6 6.8125 C-5.29875 5.91144531 -4.5975 5.01039062 -3.875 4.08203125 C-2.946875 3.05142578 -2.946875 3.05142578 -2 2 C-1.34 2 -0.68 2 0 2 C0 1.34 0 0.68 0 0 Z M2 11 C1.01 12.485 1.01 12.485 0 14 C1.06645115 15.29633621 1.06645115 15.29633621 3.5625 15.0625 C4.366875 15.041875 5.17125 15.02125 6 15 C6 14.34 6 13.68 6 13 C4.68 12.34 3.36 11.68 2 11 Z M-7 19 C-6 21 -6 21 -6 21 Z " fill="#3C3B3C" transform="translate(365,83)"/>
<path d="M0 0 C2.1875 -0.3125 2.1875 -0.3125 5 0 C7.5 2.1875 7.5 2.1875 10 5 C10.86625 5.86625 11.7325 6.7325 12.625 7.625 C13.40875 8.40875 14.1925 9.1925 15 10 C15.598125 10.556875 16.19625 11.11375 16.8125 11.6875 C18 13 18 13 18 15 C18.66 15.33 19.32 15.66 20 16 C19.67 17.65 19.34 19.3 19 21 C13.60213201 22.66088246 9.10762449 22.40358799 4 20 C5.98 22.64 7.96 25.28 10 28 C8.35 29.65 6.7 31.3 5 33 C0.82010641 29.49467137 -3.23783374 25.96017501 -7 22 C-7.47953125 21.5153125 -7.9590625 21.030625 -8.453125 20.53125 C-12.01578498 16.69453925 -12.01578498 16.69453925 -11.9375 13.25 C-11 11 -11 11 -9 9 C-6.65234375 9.05859375 -6.65234375 9.05859375 -3.9375 9.4375 C-2.29619603 9.66120714 -0.65032811 9.85737905 1 10 C1.33 9.67 1.66 9.34 2 9 C0.68 7.35 -0.64 5.7 -2 4 C-1.34 2.68 -0.68 1.36 0 0 Z " fill="#3E3E3F" transform="translate(371,369)"/>
<path d="M0 0 C7.8293525 0.10428441 7.8293525 0.10428441 10.5 2.6875 C13.4207537 7.44724676 13.30947341 9.95229667 12.1875 15.4375 C11.5275 15.4375 10.8675 15.4375 10.1875 15.4375 C10.5175 17.7475 10.8475 20.0575 11.1875 22.4375 C12.1775 22.7675 13.1675 23.0975 14.1875 23.4375 C14.5175 24.4275 14.8475 25.4175 15.1875 26.4375 C13.45789616 28.62226274 12.51826608 29.36965055 9.75 29.9375 C7.1875 29.4375 7.1875 29.4375 4.9375 27.0625 C3.1875 24.4375 3.1875 24.4375 2.1875 22.4375 C1.89875 23.571875 1.61 24.70625 1.3125 25.875 C0.94125 27.050625 0.57 28.22625 0.1875 29.4375 C-2.4791419 30.77082095 -3.97930303 30.10852033 -6.8125 29.4375 C-6.87308594 28.41011719 -6.93367187 27.38273437 -6.99609375 26.32421875 C-7.08055268 24.92446851 -7.16520115 23.52472969 -7.25 22.125 C-7.29294189 21.40038574 -7.33588379 20.67577148 -7.38012695 19.92919922 C-7.69781976 14.75567199 -8.17924473 9.62081313 -8.82421875 4.4765625 C-8.79430433 -0.7285463 -3.96712383 0.07061896 0 0 Z M1.1875 8.4375 C0.8575 9.4275 0.5275 10.4175 0.1875 11.4375 C1.5075 11.4375 2.8275 11.4375 4.1875 11.4375 C4.1875 10.4475 4.1875 9.4575 4.1875 8.4375 C3.1975 8.4375 2.2075 8.4375 1.1875 8.4375 Z " fill="#3E3E3F" transform="translate(242.8125,45.5625)"/>
<path d="M0 0 C3.3125 0.4375 3.3125 0.4375 5.3125 1.4375 C5.3125 2.4275 5.3125 3.4175 5.3125 4.4375 C4.6525 4.4375 3.9925 4.4375 3.3125 4.4375 C3.9725 5.0975 4.6325 5.7575 5.3125 6.4375 C5.8075 5.9425 6.3025 5.4475 6.8125 4.9375 C10.28716369 2.85270179 13.4262866 2.52354863 17.3125 3.4375 C21.11641029 6.38747125 21.11641029 6.38747125 22.3125 9.4375 C22.61118528 12.92571735 22.50813769 16.1301639 21.3125 19.4375 C19.30859375 20.546875 19.30859375 20.546875 17.3125 21.4375 C16.9825 22.4275 16.6525 23.4175 16.3125 24.4375 C14.0025 24.7675 11.6925 25.0975 9.3125 25.4375 C7.3125 22.4375 7.3125 22.4375 7.3125 18.4375 C6.6525 18.4375 5.9925 18.4375 5.3125 18.4375 C5.3125 19.0975 5.3125 19.7575 5.3125 20.4375 C-1.64009594 21.8596219 -1.64009594 21.8596219 -4.6875 20.4375 C-7.91948129 17.56462774 -9.00059929 15.22556064 -9.25 11 C-9.08588158 7.72857275 -8.53855139 5.54890294 -6.625 2.875 C-3.6875 0.4375 -3.6875 0.4375 0 0 Z M-1.6875 10.4375 C-1.3575 11.0975 -1.0275 11.7575 -0.6875 12.4375 C2.42582248 11.76881686 2.42582248 11.76881686 3.5 9.375 C3.768125 8.735625 4.03625 8.09625 4.3125 7.4375 C1.55026722 7.4375 0.41968546 8.75175163 -1.6875 10.4375 Z M9.625 13.8125 C8.1030543 15.34867258 8.1030543 15.34867258 8.3125 17.4375 C9.3025 17.4375 10.2925 17.4375 11.3125 17.4375 C11.3125 16.7775 11.3125 16.1175 11.3125 15.4375 C11.9725 15.4375 12.6325 15.4375 13.3125 15.4375 C13.6425 14.4475 13.9725 13.4575 14.3125 12.4375 C11.33732427 12.12166352 11.33732427 12.12166352 9.625 13.8125 Z " fill="#3D3D3D" transform="translate(70.6875,183.5625)"/>
<path d="M0 0 C2.60751313 2.10283317 2.79939429 4.30404965 3.43359375 7.4921875 C3.89292535 9.78813766 3.89292535 9.78813766 5.5625 12.4375 C7.51542121 16.8759573 7.99442934 20.80246057 6.9375 25.5625 C4.61546735 29.15767205 1.69794735 30.93443179 -2.28515625 32.35546875 C-5.70441013 33.0416655 -8.01144443 33.13290207 -11.12109375 31.4453125 C-16.10673008 27.44436525 -17.85302955 23.70830332 -18.5625 17.4375 C-18.77818738 13.50833641 -18.77818738 13.50833641 -21.0625 10.5625 C-21.0625 9.2425 -21.0625 7.9225 -21.0625 6.5625 C-16.99107143 3.5625 -16.99107143 3.5625 -14.0625 3.5625 C-13.7325 5.8725 -13.4025 8.1825 -13.0625 10.5625 C-12.4025 10.5625 -11.7425 10.5625 -11.0625 10.5625 C-9.77006464 14.6821377 -8.79997375 18.23081683 -9.0625 22.5625 C-6.7525 22.5625 -4.4425 22.5625 -2.0625 22.5625 C-2.29122928 17.62194762 -2.78491034 13.66168175 -5.25 9.3125 C-7.1278531 5.9037884 -7.1278531 5.9037884 -6.5 2.625 C-4.64556984 -0.03570414 -3.20846454 -0.68058339 0 0 Z " fill="#3D3D3D" transform="translate(207.0625,51.4375)"/>
<path d="M0 0 C1.2065625 0.0309375 1.2065625 0.0309375 2.4375 0.0625 C2.4375 0.7225 2.4375 1.3825 2.4375 2.0625 C3.0975 2.3925 3.7575 2.7225 4.4375 3.0625 C5.0703125 5.12890625 5.0703125 5.12890625 5.5625 7.625 C5.73007813 8.45128906 5.89765625 9.27757812 6.0703125 10.12890625 C6.19148438 10.76699219 6.31265625 11.40507812 6.4375 12.0625 C8.53982344 9.1940587 8.53982344 9.1940587 9.4375 6.0625 C11.75 5.375 11.75 5.375 14.4375 5.0625 C16.25 6.5 16.25 6.5 17.4375 8.0625 C17.14875 8.5575 16.86 9.0525 16.5625 9.5625 C15.29180154 12.38627435 14.60092557 15.15221306 13.90234375 18.16015625 C13.49750887 19.81691748 12.9768282 21.44451541 12.4375 23.0625 C11.7775 23.3925 11.1175 23.7225 10.4375 24.0625 C9.77977572 27.09184491 9.77977572 27.09184491 9.4375 30.0625 C6.34395403 31.05685406 4.53470845 30.94090996 1.4375 30.0625 C1.30472656 29.35222656 1.17195312 28.64195312 1.03515625 27.91015625 C0.85855469 26.99105469 0.68195313 26.07195312 0.5 25.125 C0.32597656 24.20847656 0.15195313 23.29195313 -0.02734375 22.34765625 C-0.33964988 20.10960156 -0.33964988 20.10960156 -1.5625 19.0625 C-2.2225 20.3825 -2.8825 21.7025 -3.5625 23.0625 C-4.2225 23.0625 -4.8825 23.0625 -5.5625 23.0625 C-5.8925 24.3825 -6.2225 25.7025 -6.5625 27.0625 C-9.07090707 26.72804572 -10.26533674 26.38550354 -12 24.5 C-12.90112525 20.5951239 -11.13427932 17.62950603 -9.5625 14.0625 C-9.253125 13.2375 -8.94375 12.4125 -8.625 11.5625 C-3.74980746 0.09145872 -3.74980746 0.09145872 0 0 Z M-2.5625 15.0625 C-1.5625 17.0625 -1.5625 17.0625 -1.5625 17.0625 Z " fill="#3F3F40" transform="translate(187.5625,406.9375)"/>
<path d="M0 0 C1.051875 -0.02126953 1.051875 -0.02126953 2.125 -0.04296875 C4 0.1875 4 0.1875 6 2.1875 C6.99 1.8575 7.98 1.5275 9 1.1875 C9.66 1.5175 10.32 1.8475 11 2.1875 C11 2.8475 11 3.5075 11 4.1875 C11.61875 4.39375 12.2375 4.6 12.875 4.8125 C15.93203314 6.79058027 16.19437336 8.69645124 17 12.1875 C17.6584885 15.55310786 17.47385882 17.37009354 15.75 20.34375 C13.4508746 23.36667414 11.54645616 25.78525833 7.77734375 26.765625 C5.42518378 26.81403996 3.31502366 26.5972387 1 26.1875 C-0.8871875 25.878125 -0.8871875 25.878125 -2.8125 25.5625 C-6.80940112 23.83834657 -7.98469465 21.98557547 -10 18.1875 C-10.33 17.1975 -10.66 16.2075 -11 15.1875 C-11.33 15.1875 -11.66 15.1875 -12 15.1875 C-12 13.5375 -12 11.8875 -12 10.1875 C-11.34 9.8575 -10.68 9.5275 -10 9.1875 C-9.34786708 7.16286745 -9.34786708 7.16286745 -9 5.1875 C-8.34 5.1875 -7.68 5.1875 -7 5.1875 C-6.814375 4.2284375 -6.814375 4.2284375 -6.625 3.25 C-6.41875 2.569375 -6.2125 1.88875 -6 1.1875 C-3.77109005 0.07304502 -2.46944894 0.02269714 0 0 Z M3 4.1875 C4 6.1875 4 6.1875 4 6.1875 Z M2 6.1875 C0.02 7.5075 -1.96 8.8275 -4 10.1875 C-3.14589713 13.39038575 -2.47392731 15.68088805 -0.1875 18.125 C2.67370992 19.51473053 4.01946223 19.18101259 7 18.1875 C7.99 17.5275 8.98 16.8675 10 16.1875 C9.67 14.8675 9.34 13.5475 9 12.1875 C8.34 12.1875 7.68 12.1875 7 12.1875 C6.67 13.5075 6.34 14.8275 6 16.1875 C4.5 14.875 4.5 14.875 3 13.1875 C3 12.1975 3 11.2075 3 10.1875 C2.6937566 8.84768514 2.36548445 7.51238113 2 6.1875 Z " fill="#404040" transform="translate(403,333.8125)"/>
<path d="M0 0 C1.1446875 0.3403125 1.1446875 0.3403125 2.3125 0.6875 C2.6425 2.6675 2.9725 4.6475 3.3125 6.6875 C5.47362085 6.75150387 5.47362085 6.75150387 8.1875 6.125 C11.05723335 5.72323733 12.6877881 5.52096138 15.3125 6.6875 C15.6425 7.6775 15.9725 8.6675 16.3125 9.6875 C14.21262555 12.02069383 12.70183715 13.53556355 9.75 14.6875 C6.90519216 15.85460065 5.93410415 17.1270724 4.3125 19.6875 C4.621875 20.1825 4.93125 20.6775 5.25 21.1875 C6.78191602 24.79200828 7.125217 27.75455702 7.3125 31.6875 C6.125 33.75 6.125 33.75 4.3125 34.6875 C1.94084578 34.53927161 0.58076411 33.85037464 -1.4375 32.625 C-3.48154368 29.45673229 -2.869879 26.39587308 -2.6875 22.6875 C-3.3475 23.0175 -4.0075 23.3475 -4.6875 23.6875 C-5.0175 24.6775 -5.3475 25.6675 -5.6875 26.6875 C-8.01866317 28.29519874 -9.11566426 28.78280596 -11.9375 28.3125 C-12.80375 28.003125 -12.80375 28.003125 -13.6875 27.6875 C-14.83831169 23.65965907 -14.65031457 21.40651707 -12.6875 17.6875 C-12.0275 17.3575 -11.3675 17.0275 -10.6875 16.6875 C-10.30531233 15.03135343 -9.97354898 13.36292976 -9.6875 11.6875 C-9.3575 11.0275 -9.0275 10.3675 -8.6875 9.6875 C-8.0275 9.6875 -7.3675 9.6875 -6.6875 9.6875 C-6.584375 8.594375 -6.48125 7.50125 -6.375 6.375 C-5.6875 2.6875 -5.6875 2.6875 -4.4375 0.6875 C-2.6875 -0.3125 -2.6875 -0.3125 0 0 Z " fill="#3C3C3D" transform="translate(328.6875,60.3125)"/>
<path d="M0 0 C0.556875 0.37125 1.11375 0.7425 1.6875 1.125 C1.42728928 4.85822725 1.20026006 6.62490069 -1.52734375 9.28515625 C-2.87505859 10.22681641 -2.87505859 10.22681641 -4.25 11.1875 C-8.06061541 13.86863803 -9.94492007 15.6158936 -11.3125 20.125 C-10.3225 20.455 -9.3325 20.785 -8.3125 21.125 C-6.00265887 19.74203779 -3.90518226 18.34327005 -1.75 16.75 C4.60416667 12.16666667 4.60416667 12.16666667 6.6875 11.125 C10.5625 13.75 10.5625 13.75 11.6875 17.125 C6.32940549 23.03738015 -0.82756506 30.41667596 -9.125 31.0625 C-12.71120833 30.72187448 -14.36480936 29.53097315 -16.75 26.875 C-21.45955882 20.59558824 -21.45955882 20.59558824 -21.125 17.25 C-20.856875 16.54875 -20.58875 15.8475 -20.3125 15.125 C-19.961875 14.17625 -19.61125 13.2275 -19.25 12.25 C-16.70276964 8.14156393 -13.44281345 5.59792652 -9.3125 3.125 C-8.6525 3.125 -7.9925 3.125 -7.3125 3.125 C-7.3125 2.465 -7.3125 1.805 -7.3125 1.125 C-2.88173077 -1.09038462 -2.88173077 -1.09038462 0 0 Z " fill="#3E3E3F" transform="translate(400.3125,116.875)"/>
<path d="M0 0 C2.6875 0.875 2.6875 0.875 5 2 C5.95756617 6.88358746 5.97807956 9.49437433 4 14 C3.5411342 16.6634167 3.27372299 19.30839063 3 22 C4.98 22.33 6.96 22.66 9 23 C9.103125 22.030625 9.20625 21.06125 9.3125 20.0625 C9.84908858 16.23639015 10.99088892 12.7456477 12.28125 9.11328125 C12.96888775 7.09147678 13.51215995 5.07801097 14 3 C15.98 3.66 17.96 4.32 20 5 C21.41351289 10.01154568 20.51836616 13.07504281 18.74609375 17.76171875 C17.83432821 20.20311464 17.83432821 20.20311464 17.6875 23.75 C16.96937967 27.14475064 16.58771091 27.79747722 14.125 30 C13.09375 30.66 12.0625 31.32 11 32 C10.01 31.67 9.02 31.34 8 31 C8 31.66 8 32.32 8 33 C2.14864877 31.90907011 -1.27304865 30.96926846 -5 26 C-6.51270631 20.92162882 -6.04926441 16.40713599 -3.9375 11.5625 C-2.78110336 8.87745088 -2.78110336 8.87745088 -3.0625 5.3125 C-3.041875 4.219375 -3.02125 3.12625 -3 2 C-2.01 1.34 -1.02 0.68 0 0 Z " fill="#3E3F3F" transform="translate(282,47)"/>
<path d="M0 0 C5.3860112 1.84663241 10.22897517 4.89548057 13 10 C13.5 13.4375 13.5 13.4375 13 17 C10.08207303 20.72846224 8.6395669 21.84010827 4 23 C3.67 25.97 3.34 28.94 3 32 C1.02 32.495 1.02 32.495 -1 33 C-5.42857143 26.71428571 -5.42857143 26.71428571 -6 23 C-6.99 23.99 -7.98 24.98 -9 26 C-12.47899158 24.60840337 -13.48052501 23.36748512 -15 20 C-7.80808081 9.5959596 -7.80808081 9.5959596 -4 5 C-3.2575 4.071875 -2.515 3.14375 -1.75 2.1875 C-1.1725 1.465625 -0.595 0.74375 0 0 Z M2 10 C2 11.32 2 12.64 2 14 C2.99 13.67 3.98 13.34 5 13 C4.01 12.01 3.02 11.02 2 10 Z M-4 19 C-4 21.64 -4 24.28 -4 27 C-3.67 27 -3.34 27 -3 27 C-3 24.36 -3 21.72 -3 19 C-3.33 19 -3.66 19 -4 19 Z " fill="#3C3C3D" transform="translate(153,387)"/>
<path d="M0 0 C4.53702584 0.03226903 8.0387474 0.92136509 12.25 2.515625 C15.95118431 3.72365043 19.62978013 3.94283969 23.5 4.25 C23.83 5.9 24.16 7.55 24.5 9.25 C23.51 9.745 23.51 9.745 22.5 10.25 C22.17 11.24 21.84 12.23 21.5 13.25 C19.19 13.25 16.88 13.25 14.5 13.25 C12.89919849 17.25200378 14.20720308 20.29556236 15.5 24.25 C14.18 25.57 12.86 26.89 11.5 28.25 C6.33534582 24.03395577 1.48712997 19.63080761 -2.5 14.25 C-2.5 13.59 -2.5 12.93 -2.5 12.25 C-4.12553283 10.54319053 -5.79115995 8.87339805 -7.5 7.25 C-5.21700357 0.09661118 -5.21700357 0.09661118 0 0 Z " fill="#404040" transform="translate(88.5,144.75)"/>
<path d="M0 0 C4.64590164 1.4295082 4.64590164 1.4295082 6.125 3.8125 C5.92096166 7.383171 3.59540624 8.68070081 1 11 C-0.09347436 12.00996319 -1.17687094 13.03094495 -2.25 14.0625 C-2.75015625 14.52785156 -3.2503125 14.99320312 -3.765625 15.47265625 C-5.21793917 17.26966523 -5.59304148 18.74719391 -6 21 C-1.8500758 21.06438984 -1.8500758 21.06438984 2 20 C2.68620031 18.67661368 3.34786461 17.34050052 4 16 C5.91337864 13.8963122 7.94279787 11.96775855 10 10 C12.72503243 10.96694699 13.78340685 11.57884666 15.125 14.1875 C14.92350507 18.72113603 12.18790667 20.97813014 9 24 C4.26899682 28.26362585 0.50319079 31 -6 31 C-6.66 30.34 -7.32 29.68 -8 29 C-9.03125 28.34 -10.0625 27.68 -11.125 27 C-13.13140189 25.31144395 -13.91061264 24.29726495 -14.671875 21.765625 C-15.00146633 17.68376316 -14.64876711 15.00654309 -12.40625 11.52734375 C-8.67566944 7.23000191 -4.49260721 3.48177059 0 0 Z " fill="#3D3D3E" transform="translate(120,358)"/>
<path d="M0 0 C2.38564077 0.57584432 4.66682784 1.22227595 7 2 C7.33 1.34 7.66 0.68 8 0 C8 0.66 8 1.32 8 2 C12.29 2 16.58 2 21 2 C21 2.66 21 3.32 21 4 C22.98 3.67 24.96 3.34 27 3 C27.28875 4.134375 27.5775 5.26875 27.875 6.4375 C28.24625 7.613125 28.6175 8.78875 29 10 C29.66 10.33 30.32 10.66 31 11 C25.8358345 15.53438922 20.77974091 18.82958277 14.4375 21.5 C10.91523923 23.03698652 8.14785447 24.82648144 5 27 C4.67 27 4.34 27 4 27 C3.34 24.36 2.68 21.72 2 19 C2.66 19 3.32 19 4 19 C5.81301758 14.56906802 5.81301758 14.56906802 5 10 C1.99992729 8.29144978 1.99992729 8.29144978 -1 7 C-0.67 4.69 -0.34 2.38 0 0 Z M13 10 C13 10.66 13 11.32 13 12 C13.66 11.67 14.32 11.34 15 11 C14.34 10.67 13.68 10.34 13 10 Z " fill="#414141" transform="translate(413,198)"/>
<path d="M0 0 C0.33 0.66 0.66 1.32 1 2 C1.66 2 2.32 2 3 2 C3 3.32 3 4.64 3 6 C3.66 6.66 4.32 7.32 5 8 C5.7013284 10.32315031 6.36485174 12.65789079 7 15 C7.6599679 16.66933058 8.32558869 18.3364521 9 20 C9.35858516 21.32676508 9.7018576 22.65835921 10 24 C8.35 25.32 6.7 26.64 5 28 C4.34 27.67 3.68 27.34 3 27 C3 26.34 3 25.68 3 25 C2.34 25 1.68 25 1 25 C1 23.68 1 22.36 1 21 C-2.13349732 19.95550089 -2.98968256 20.06576355 -6 21 C-5.34 22.11375 -4.68 23.2275 -4 24.375 C-2 27.75 -2 27.75 -2 30 C-4.31 30.99 -6.62 31.98 -9 33 C-9 32.34 -9 31.68 -9 31 C-9.66 30.67 -10.32 30.34 -11 30 C-11 28.35 -11 26.7 -11 25 C-11.66 25 -12.32 25 -13 25 C-14.19287411 21.12315913 -15 18.08378077 -15 14 C-15.66 14 -16.32 14 -17 14 C-17.33 12.35 -17.66 10.7 -18 9 C-16.35 7.68 -14.7 6.36 -13 5 C-11 6.25 -11 6.25 -9 8 C-9 9.32 -9 10.64 -9 12 C-7.68 12 -6.36 12 -5 12 C-3.7922442 8.37673261 -4.45688872 7.35853631 -6 4 C-4.02 2.68 -2.04 1.36 0 0 Z M-3 10 C-2 12 -2 12 -2 12 Z " fill="#3F3E3F" transform="translate(313,409)"/>
<path d="M0 0 C3.3 0 6.6 0 10 0 C10.66 1.32 11.32 2.64 12 4 C12.66 4 13.32 4 14 4 C13.67 5.65 13.34 7.3 13 9 C8.545 8.01 8.545 8.01 4 7 C4 7.66 4 8.32 4 9 C4.928125 8.938125 5.85625 8.87625 6.8125 8.8125 C10 9 10 9 11.875 10.375 C13 12 13 12 13 14 C13.66 14.33 14.32 14.66 15 15 C16 16 16 16 16.0625 18.5625 C16.041875 19.366875 16.02125 20.17125 16 21 C15.34 21 14.68 21 14 21 C13.773125 21.78375 13.54625 22.5675 13.3125 23.375 C12 26 12 26 9.75 27.375 C6.37511091 28.14202025 4.32492476 27.96976972 1 27 C-2.30055507 24.79962995 -3.73542724 23.79371827 -5 20 C-3 17 -3 17 0 16 C-0.66 15.67 -1.32 15.34 -2 15 C-2 14.01 -2 13.02 -2 12 C-2.99 11.67 -3.98 11.34 -5 11 C-5 9.02 -5 7.04 -5 5 C-4.01 4.67 -3.02 4.34 -2 4 C-1.34 2.68 -0.68 1.36 0 0 Z M4 16 C3.34 16.66 2.68 17.32 2 18 C4.475 18.495 4.475 18.495 7 19 C6.67 18.01 6.34 17.02 6 16 C5.34 16 4.68 16 4 16 Z " fill="#3D3D3D" transform="translate(260,421)"/>
<path d="M0 0 C0 0.66 0 1.32 0 2 C0.66 2 1.32 2 2 2 C4.27141454 7.39460953 4.20413361 12.26157749 4 18 C3.34 18 2.68 18 2 18 C1.34 19.32 0.68 20.64 0 22 C-3.40038985 22.35042185 -6.6145931 22.5412406 -10 22 C-12.625 19 -12.625 19 -14 16 C-16.97 16.66 -19.94 17.32 -23 18 C-24.87125129 14.14742381 -24.99030231 12.12048864 -24 8 C-23.33613281 7.81824219 -22.67226563 7.63648438 -21.98828125 7.44921875 C-17.19252535 6.08400357 -13.24897323 4.64125363 -9 2 C-2.78947368 0 -2.78947368 0 0 0 Z M-9 10 C-8 13 -8 13 -8 13 Z M-5 10 C-5.99 10.495 -5.99 10.495 -7 11 C-6.67 11.99 -6.34 12.98 -6 14 C-4.68 13.34 -3.36 12.68 -2 12 C-2.99 11.34 -3.98 10.68 -5 10 Z " fill="#3D3D3E" transform="translate(426,156)"/>
<path d="M0 0 C5.09371475 2.75659857 7.57117153 5.79825903 10 11 C10.3125 14 10.3125 14 10 16 C8.35 16.66 6.7 17.32 5 18 C4.38125 17.030625 3.7625 16.06125 3.125 15.0625 C1.34321154 11.97164638 1.34321154 11.97164638 -1 11 C-0.46375 11.9075 0.0725 12.815 0.625 13.75 C2 17 2 17 1.1875 19.375 C0.795625 19.91125 0.40375 20.4475 0 21 C-1.98 21 -3.96 21 -6 21 C-6.33 20.01 -6.66 19.02 -7 18 C-10.55780196 18.60990891 -13.6828589 19.5783681 -17 21 C-18.45594878 18.68761076 -19 17.25694944 -19 14.5 C-17.57211455 10.93028636 -15.22373895 10.03842978 -12 8 C-10.94039062 7.29359375 -9.88078125 6.5871875 -8.7890625 5.859375 C-5.859375 3.90625 -2.9296875 1.953125 0 0 Z " fill="#3B3A3B" transform="translate(97,326)"/>
<path d="M0 0 C4.68035325 1.84750786 6.00714906 4.54141322 7.95703125 8.87890625 C9.01431645 11.02911548 10.23569632 12.78642757 11.6875 14.6875 C13.69051765 17.40986764 15 19.50571638 15 23 C13.5625 24.8125 13.5625 24.8125 12 26 C8.68470727 25.01437243 7.25050621 24.34552581 5.1875 21.5 C4 19 4 19 4 17 C3.236875 16.236875 2.47375 15.47375 1.6875 14.6875 C-0.84892025 12.15107975 -2.62920138 10.30604372 -4 7 C-3.3125 3.75 -3.3125 3.75 -2 1 C-1.34 0.67 -0.68 0.34 0 0 Z " fill="#3D3D3E" transform="translate(338,396)"/>
<path d="M0 0 C0.33 0.66 0.66 1.32 1 2 C1.99 2 2.98 2 4 2 C4.88148602 8.58732124 5.30527983 13.72451603 3 20 C2.814375 20.7425 2.62875 21.485 2.4375 22.25 C2.03628529 23.85485884 1.52311998 25.43064006 1 27 C-0.98 27 -2.96 27 -5 27 C-6.36393287 23.59016783 -5.57466516 21.45588313 -4.4765625 18.06640625 C-3.72828988 14.82184709 -3.90740434 11.64340205 -4.02734375 8.33203125 C-3.99980093 5.98302206 -3.83274515 4.19712987 -3 2 C-2.01 1.34 -1.02 0.68 0 0 Z " fill="#404041" transform="translate(228,418)"/>
<path d="M0 0 C1.051875 -0.02126953 1.051875 -0.02126953 2.125 -0.04296875 C4 0.1875 4 0.1875 6 2.1875 C5.9375 4.1875 5.9375 4.1875 5 6.1875 C2.625 7.25 2.625 7.25 0 8.1875 C-1.77277259 9.70757842 -1.77277259 9.70757842 -3 11.1875 C-1.92598892 14.10267292 -1.22189824 15.96560176 1 18.1875 C0.030625 18.435 -0.93875 18.6825 -1.9375 18.9375 C-2.948125 19.35 -3.95875 19.7625 -5 20.1875 C-5.96877057 22.21993548 -5.96877057 22.21993548 -6 24.1875 C-9.875 18.5625 -9.875 18.5625 -11 15.1875 C-11.33 15.1875 -11.66 15.1875 -12 15.1875 C-12 13.5375 -12 11.8875 -12 10.1875 C-11.34 9.8575 -10.68 9.5275 -10 9.1875 C-9.34786708 7.16286745 -9.34786708 7.16286745 -9 5.1875 C-8.34 5.1875 -7.68 5.1875 -7 5.1875 C-6.814375 4.2284375 -6.814375 4.2284375 -6.625 3.25 C-6.41875 2.569375 -6.2125 1.88875 -6 1.1875 C-3.77109005 0.07304502 -2.46944894 0.02269714 0 0 Z " fill="#383838" transform="translate(403,333.8125)"/>
<path d="M0 0 C3.3 0 6.6 0 10 0 C10.66 1.32 11.32 2.64 12 4 C12.66 4 13.32 4 14 4 C13.67 5.65 13.34 7.3 13 9 C8.545 8.01 8.545 8.01 4 7 C3.855625 7.78375 3.71125 8.5675 3.5625 9.375 C3 12 3 12 2 14 C-0.96175123 13.38722388 -2.38058783 12.74627478 -5 11 C-5.1875 7.875 -5.1875 7.875 -5 5 C-4.01 4.67 -3.02 4.34 -2 4 C-1.34 2.68 -0.68 1.36 0 0 Z " fill="#424243" transform="translate(260,421)"/>
<path d="M0 0 C2.5 0.5 2.5 0.5 4.875 2.0625 C6.5 4.5 6.5 4.5 6.25 8.25 C6.0025 9.3225 5.755 10.395 5.5 11.5 C4.84 11.5 4.18 11.5 3.5 11.5 C3.5 12.16 3.5 12.82 3.5 13.5 C1.3125 14.3125 1.3125 14.3125 -1.5 14.5 C-4.53136213 12.2096375 -6.23635401 10.70105394 -7.0625 6.9375 C-6.11945326 2.85096415 -4.12155291 0.82431058 0 0 Z " fill="#373737" transform="translate(73.5,238.5)"/>
<path d="M0 0 C2.1875 -0.3125 2.1875 -0.3125 5 0 C8.46648866 2.95919764 11.22139812 6.39810867 14 10 C13.360625 10.28875 12.72125 10.5775 12.0625 10.875 C9.84793921 11.82823451 9.84793921 11.82823451 9 14 C6.36 14 3.72 14 1 14 C1.66 12.68 2.32 11.36 3 10 C1.35 8.02 -0.3 6.04 -2 4 C-1.34 2.68 -0.68 1.36 0 0 Z " fill="#393839" transform="translate(371,369)"/>
<path d="M0 0 C3.27034459 -0.36337162 4.60883753 -0.28544288 7.3125 1.6875 C9.28544288 4.39116247 9.36337162 5.72965541 9 9 C8.01 9.33 7.02 9.66 6 10 C5.67 10.99 5.34 11.98 5 13 C2.75 13.3125 2.75 13.3125 0 13 C-2.375 10.8125 -2.375 10.8125 -4 8 C-3.75 5.1875 -3.75 5.1875 -3 3 C-2.01 2.67 -1.02 2.34 0 2 C0 1.34 0 0.68 0 0 Z " fill="#3A3A3B" transform="translate(425,242)"/>
<path d="M0 0 C0.66 0.33 1.32 0.66 2 1 C2 1.66 2 2.32 2 3 C2.66 3 3.32 3 4 3 C3.67 4.65 3.34 6.3 3 8 C2.01 8.33 1.02 8.66 0 9 C0 9.66 0 10.32 0 11 C-3.01031744 11.93423645 -3.86650268 12.04449911 -7 11 C-7 10.01 -7 9.02 -7 8 C-7.99 7.67 -8.98 7.34 -10 7 C-9.6875 4.625 -9.6875 4.625 -9 2 C-5.54337669 -0.30441554 -4.05142119 -0.25860135 0 0 Z " fill="#393939" transform="translate(80,295)"/>
<path d="M0 0 C0 0.66 0 1.32 0 2 C1.32 2.66 2.64 3.32 4 4 C4.3125 6.25 4.3125 6.25 4 9 C1.8125 11.375 1.8125 11.375 -1 13 C-3.6875 12.9375 -3.6875 12.9375 -6 12 C-8.31361802 8.52957297 -8.51020728 7.08165827 -8 3 C-5.22094435 0.02244037 -4.2016934 0 0 0 Z " fill="#3C3B3C" transform="translate(425,293)"/>
<path d="M0 0 C0.99 0.33 1.98 0.66 3 1 C2.25 5.75 2.25 5.75 0 8 C-0.33 8.99 -0.66 9.98 -1 11 C-1.66 11 -2.32 11 -3 11 C-3.33 11.99 -3.66 12.98 -4 14 C-4.33 14 -4.66 14 -5 14 C-5 12.35 -5 10.7 -5 9 C-5.66 9 -6.32 9 -7 9 C-5.76448756 5.29346269 -4.03334922 4.35084565 -1 2 C-0.67 1.34 -0.34 0.68 0 0 Z " fill="#FB0A09" transform="translate(229,269)"/>
<path d="M0 0 C0.66 0 1.32 0 2 0 C3.83832664 3.10217621 4.47446226 5.39408679 4 9 C3.01 9.66 2.02 10.32 1 11 C1 11.99 1 12.98 1 14 C1.99 14 2.98 14 4 14 C4 14.66 4 15.32 4 16 C2.35 16.66 0.7 17.32 -1 18 C-1.66 15.36 -2.32 12.72 -3 10 C-2.34 10 -1.68 10 -1 10 C0.95031608 5.05250648 0.95031608 5.05250648 0 0 Z " fill="#2B2B2C" transform="translate(418,207)"/>
<path d="M0 0 C2.5625 1.25 2.5625 1.25 5 3 C5.33 3.99 5.66 4.98 6 6 C5.01 6.495 5.01 6.495 4 7 C4 6.34 4 5.68 4 5 C3.01 5.33 2.02 5.66 1 6 C0.26676204 8.01508358 0.26676204 8.01508358 0 10 C-0.66 10 -1.32 10 -2 10 C-3.125 7.75 -3.125 7.75 -4 5 C-3.25 2.75 -3.25 2.75 -2 1 C-1.34 0.67 -0.68 0.34 0 0 Z " fill="#302F30" transform="translate(338,396)"/>
<path d="M0 0 C1.98 0 3.96 0 6 0 C5.67 0.66 5.34 1.32 5 2 C4.34 2 3.68 2 3 2 C2.78918149 5.89459074 2.78918149 5.89459074 4 9 C0.28111761 8.49287967 -2.73454239 7.88391785 -6 6 C-5.67 5.34 -5.34 4.68 -5 4 C-4.01 4.33 -3.02 4.66 -2 5 C-1.34 3.35 -0.68 1.7 0 0 Z " fill="#2D2B2C" transform="translate(264,430)"/>
<path d="M0 0 C-0.36734694 6.36734694 -0.36734694 6.36734694 -3.4375 9.4375 C-6 11 -6 11 -8 11 C-7.72253472 6.28309024 -5.62886998 4.24197448 -2.375 1.13671875 C-1 0 -1 0 0 0 Z " fill="#FC0A0A" transform="translate(260,243)"/>
<path d="M0 0 C0.66 0 1.32 0 2 0 C2.66 2.31 3.32 4.62 4 7 C2.68 8.32 1.36 9.64 0 11 C-1.65 9.35 -3.3 7.7 -5 6 C-4.175 5.566875 -3.35 5.13375 -2.5 4.6875 C-1.2625 3.8521875 -1.2625 3.8521875 0 3 C0 2.01 0 1.02 0 0 Z " fill="#323233" transform="translate(100,162)"/>
<path d="M0 0 C0.99 0 1.98 0 3 0 C3.33 0.99 3.66 1.98 4 3 C4.66 3.33 5.32 3.66 6 4 C6 4.99 6 5.98 6 7 C4.02 7 2.04 7 0 7 C-0.66 5.35 -1.32 3.7 -2 2 C-1.34 1.34 -0.68 0.68 0 0 Z " fill="#4B4A4B" transform="translate(250,66)"/>
<path d="M0 0 C0.33 0.99 0.66 1.98 1 3 C1.99 3.33 2.98 3.66 4 4 C4.33 4.99 4.66 5.98 5 7 C3.27039616 9.18476274 2.33076608 9.93215055 -0.4375 10.5 C-4.02645529 9.79971604 -5.01077261 7.94700354 -7 5 C-6.67 4.34 -6.34 3.68 -6 3 C-4.5 4.375 -4.5 4.375 -3 6 C-3 6.66 -3 7.32 -3 8 C-1.02 8 0.96 8 3 8 C3 7.01 3 6.02 3 5 C2.01 4.67 1.02 4.34 0 4 C0 2.68 0 1.36 0 0 Z " fill="#212123" transform="translate(253,65)"/>
<path d="M0 0 C0.33 0 0.66 0 1 0 C1 1.65 1 3.3 1 5 C0.01 5.495 0.01 5.495 -1 6 C-1.3449145 7.33038449 -1.67516582 8.66457061 -2 10 C-2.96887581 12.01526169 -3.9641321 14.01833966 -5 16 C-6.24620265 12.39985902 -5.99118023 9.65974239 -5 6 C-3 3.75 -3 3.75 -1 2 C-0.67 1.34 -0.34 0.68 0 0 Z " fill="#FC0A08" transform="translate(222,285)"/>
<path d="M0 0 C1.875 1.3125 1.875 1.3125 2.625 3.4375 C2.74875 4.365625 2.74875 4.365625 2.875 5.3125 C1.885 4.9825 0.895 4.6525 -0.125 4.3125 C-0.125 3.3225 -0.125 2.3325 -0.125 1.3125 C-1.445 1.3125 -2.765 1.3125 -4.125 1.3125 C-4.125 4.2825 -4.125 7.2525 -4.125 10.3125 C-5.87459319 7.68811021 -6.74568453 6.34702373 -7.125 3.3125 C-4.97562019 0.08843028 -3.88353132 -1.2564366 0 0 Z " fill="#212121" transform="translate(207.125,51.6875)"/>
<path d="M0 0 C2.38564077 0.57584432 4.66682784 1.22227595 7 2 C7.33 1.34 7.66 0.68 8 0 C8 0.99 8 1.98 8 3 C6.02 3 4.04 3 2 3 C2.99 4.98 3.98 6.96 5 9 C2.83125748 8.49396008 1.00032373 8.00016187 -1 7 C-0.67 4.69 -0.34 2.38 0 0 Z " fill="#282629" transform="translate(413,198)"/>
<path d="M0 0 C0.33 2.31 0.66 4.62 1 7 C-0.32 5.68 -1.64 4.36 -3 3 C-3.84454356 6.37817425 -4.10844919 8.67465243 -3 12 C-7 7.5 -7 7.5 -7 3 C-2.92857143 0 -2.92857143 0 0 0 Z " fill="#262827" transform="translate(193,55)"/>
<path d="M0 0 C0.99 0.33 1.98 0.66 3 1 C-0.33562767 5.51290803 -2.33289301 7.68206814 -8 9 C-7.04270084 7.87411986 -6.08412105 6.7493285 -5.125 5.625 C-4.59132813 4.99851562 -4.05765625 4.37203125 -3.5078125 3.7265625 C-2.38567993 2.44163349 -1.20628025 1.20628025 0 0 Z " fill="#242425" transform="translate(130,368)"/>
<path d="M0 0 C1.98 0.66 3.96 1.32 6 2 C7.0257259 6.41062136 7.03684712 8.92630576 5 13 C4.34 13 3.68 13 3 13 C3.33 10.03 3.66 7.06 4 4 C2.68 3.34 1.36 2.68 0 2 C0 1.34 0 0.68 0 0 Z " fill="#1F201F" transform="translate(296,50)"/>
<path d="M0 0 C1.32 0.33 2.64 0.66 4 1 C3.51789063 1.38671875 3.03578125 1.7734375 2.5390625 2.171875 C1.59160156 2.95304688 1.59160156 2.95304688 0.625 3.75 C-0.31472656 4.51570312 -0.31472656 4.51570312 -1.2734375 5.296875 C-3.08312318 7.08199481 -4.00117455 8.67949644 -5 11 C-5.87324262 8.55492066 -6.10151327 7.32299678 -5.3125 4.8125 C-4 3 -4 3 -1.875 2.25 C-1.25625 2.1675 -0.6375 2.085 0 2 C0 1.34 0 0.68 0 0 Z " fill="#151515" transform="translate(393,126)"/>
<path d="M0 0 C0.66 0.33 1.32 0.66 2 1 C1.01 2.485 1.01 2.485 0 4 C-0.66 4 -1.32 4 -2 4 C-2.268125 4.639375 -2.53625 5.27875 -2.8125 5.9375 C-4 8 -4 8 -7 9 C-6.82374165 6.62051228 -6.30280227 5.29774151 -4.59765625 3.62109375 C-3.09350908 2.37884514 -1.54870149 1.18623944 0 0 Z " fill="#262727" transform="translate(389,121)"/>
<path d="M0 0 C4.3890815 0.51035831 7.33708062 1.52214277 11 4 C7.90998791 5.54500605 5.32822635 4.58389936 2 4 C1.01 3.67 0.02 3.34 -1 3 C-0.67 2.01 -0.34 1.02 0 0 Z " fill="#F30907" transform="translate(323,107)"/>
<path d="M0 0 C1.09570312 0.10183594 2.19140625 0.20367187 3.3203125 0.30859375 C4.16335938 0.39238281 5.00640625 0.47617187 5.875 0.5625 C5.875 0.8925 5.875 1.2225 5.875 1.5625 C2.905 1.5625 -0.065 1.5625 -3.125 1.5625 C-3.125 2.2225 -3.125 2.8825 -3.125 3.5625 C-4.115 3.5625 -5.105 3.5625 -6.125 3.5625 C-6.125 2.9025 -6.125 2.2425 -6.125 1.5625 C-6.785 1.2325 -7.445 0.9025 -8.125 0.5625 C-5.28943413 -0.85528293 -3.1341294 -0.30007622 0 0 Z " fill="#FB0B0A" transform="translate(310.125,381.4375)"/>
<path d="M0 0 C0.66 0.33 1.32 0.66 2 1 C2 4.3 2 7.6 2 11 C0 9 0 9 -0.125 5.875 C-0.08375 4.92625 -0.0425 3.9775 0 3 C-0.66 3 -1.32 3 -2 3 C-1 1 -1 1 0 0 Z " fill="#FA0809" transform="translate(267,274)"/>
<path d="M0 0 C2.4375 0.75 2.4375 0.75 5 2 C6 3.9375 6 3.9375 6 6 C4.5625 7.75 4.5625 7.75 3 9 C2.67 7.35 2.34 5.7 2 4 C1.01 3.67 0.02 3.34 -1 3 C-0.67 2.01 -0.34 1.02 0 0 Z " fill="#29292C" transform="translate(406,128)"/>
<path d="M0 0 C3.71599191 -0.20086443 4.77208445 -0.1519437 8 2 C7.67 2.99 7.34 3.98 7 5 C6.01 4.01 5.02 3.02 4 2 C2.35 2.66 0.7 3.32 -1 4 C-0.67 2.68 -0.34 1.36 0 0 Z " fill="#252626" transform="translate(118,110)"/>
<path d="M0 0 C3.3 0.33 6.6 0.66 10 1 C10 1.33 10 1.66 10 2 C6.37 2.33 2.74 2.66 -1 3 C-0.67 2.01 -0.34 1.02 0 0 Z " fill="#FB0909" transform="translate(309,107)"/>
<path d="M0 0 C0.66 0.33 1.32 0.66 2 1 C1.67 4.63 1.34 8.26 1 12 C-1 10 -1 10 -1.1875 6.5625 C-1 3 -1 3 0 0 Z " fill="#1D1D1E" transform="translate(277,61)"/>
<path d="M0 0 C0.33 0 0.66 0 1 0 C1.38922918 1.28745036 1.76098036 2.58019597 2.125 3.875 C2.33382812 4.59429687 2.54265625 5.31359375 2.7578125 6.0546875 C2.83773437 6.69664062 2.91765625 7.33859375 3 8 C2.34 8.66 1.68 9.32 1 10 C1 9.01 1 8.02 1 7 C0.34 7 -0.32 7 -1 7 C-1.04254356 5.00045254 -1.04080783 2.99958364 -1 1 C-0.67 0.67 -0.34 0.34 0 0 Z " fill="#181818" transform="translate(192,414)"/>
<path d="M0 0 C0.33 0.99 0.66 1.98 1 3 C0.54625 3.433125 0.0925 3.86625 -0.375 4.3125 C-2.20024334 6.10798342 -2.20024334 6.10798342 -4 9 C-4.33 7.68 -4.66 6.36 -5 5 C-4.01 4.67 -3.02 4.34 -2 4 C-0.79117904 1.99983534 -0.79117904 1.99983534 0 0 Z " fill="#313132" transform="translate(260,421)"/>
<path d="M0 0 C0 3.15081975 -0.27898465 4.41847698 -2 7 C-4.125 7.75 -4.125 7.75 -6 8 C-4.55746343 4.63408134 -2.66735273 2.48952921 0 0 Z " fill="#121212" transform="translate(114,363)"/>
<path d="M0 0 C1.32 0.33 2.64 0.66 4 1 C2.71937515 2.7074998 1.38232443 4.37373596 0 6 C-0.66 6 -1.32 6 -2 6 C-1.49396008 3.83125748 -1.00016187 2.00032373 0 0 Z " fill="#DC0503" transform="translate(103,287)"/>
<path d="M0 0 C0.33 0 0.66 0 1 0 C1 2.97 1 5.94 1 9 C0.01 8.34 -0.98 7.68 -2 7 C-1.125 2.25 -1.125 2.25 0 0 Z " fill="#272C28" transform="translate(381,130)"/>
<path d="M0 0 C0.99 0 1.98 0 3 0 C3.33 1.32 3.66 2.64 4 4 C2.68 4.33 1.36 4.66 0 5 C-0.5625 3.0625 -0.5625 3.0625 -1 1 C-0.67 0.67 -0.34 0.34 0 0 Z " fill="#515152" transform="translate(339,401)"/>
<path d="M0 0 C1.1446875 0.2475 1.1446875 0.2475 2.3125 0.5 C5.03596236 1.09145396 5.03596236 1.09145396 8 1 C7.67 1.66 7.34 2.32 7 3 C4.6859378 3.73075648 2.35171131 4.40138258 0 5 C0 3.33333333 0 1.66666667 0 0 Z " fill="#0A0A0A" transform="translate(157,81)"/>
<path d="M0 0 C0.66 0.33 1.32 0.66 2 1 C1.34 2.32 0.68 3.64 0 5 C-1.32 5 -2.64 5 -4 5 C-2.25 1.125 -2.25 1.125 0 0 Z " fill="#333333" transform="translate(97,342)"/>
<path d="M0 0 C0.99 0 1.98 0 3 0 C2.34 1.32 1.68 2.64 1 4 C0.34 4 -0.32 4 -1 4 C-1.33 4.99 -1.66 5.98 -2 7 C-2.66 6.67 -3.32 6.34 -4 6 C-3.34 5.01 -2.68 4.02 -2 3 C-1.34 3 -0.68 3 0 3 C0 2.01 0 1.02 0 0 Z " fill="#1E2020" transform="translate(89,201)"/>
<path d="M0 0 C0.33 0 0.66 0 1 0 C1 4.29 1 8.58 1 13 C0.67 13 0.34 13 0 13 C0 8.71 0 4.42 0 0 Z " fill="#FF0000" transform="translate(403,271)"/>
<path d="M0 0 C3.63 0 7.26 0 11 0 C11 0.33 11 0.66 11 1 C7.37 1 3.74 1 0 1 C0 0.67 0 0.34 0 0 Z " fill="#E70000" transform="translate(184,383)"/>
<path d="M0 0 C0.33 0 0.66 0 1 0 C1 3.63 1 7.26 1 11 C0.67 11 0.34 11 0 11 C0 7.37 0 3.74 0 0 Z " fill="#000000" transform="translate(234,60)"/>
<path d="M0 0 C2.97 0 5.94 0 9 0 C9 0.33 9 0.66 9 1 C6.03 1 3.06 1 0 1 C0 0.67 0 0.34 0 0 Z " fill="#FF0000" transform="translate(253,85)"/>
<path d="M0 0 C2.31 0 4.62 0 7 0 C7 0.33 7 0.66 7 1 C4.69 1 2.38 1 0 1 C0 0.67 0 0.34 0 0 Z " fill="#000000" transform="translate(241,45)"/>
<path d="M0 0 C0.33 0 0.66 0 1 0 C1 1.98 1 3.96 1 6 C0.67 6 0.34 6 0 6 C0 4.02 0 2.04 0 0 Z " fill="#F00000" transform="translate(105,201)"/>
<path d="M0 0 C0.33 0 0.66 0 1 0 C1 1.65 1 3.3 1 5 C0.67 5 0.34 5 0 5 C0 3.35 0 1.7 0 0 Z " fill="#E50000" transform="translate(203,262)"/>
<path d="M0 0 C1.65 0 3.3 0 5 0 C5 0.33 5 0.66 5 1 C3.35 1 1.7 1 0 1 C0 0.67 0 0.34 0 0 Z " fill="#FF0000" transform="translate(296,227)"/>
<path d="M0 0 C0.33 0 0.66 0 1 0 C1 1.65 1 3.3 1 5 C0.67 5 0.34 5 0 5 C0 3.35 0 1.7 0 0 Z " fill="#E50000" transform="translate(105,210)"/>
<path d="M0 0 C1.65 0 3.3 0 5 0 C5 0.33 5 0.66 5 1 C3.35 1 1.7 1 0 1 C0 0.67 0 0.34 0 0 Z " fill="#000000" transform="translate(389,147)"/>
<path d="M0 0 C1.65 0 3.3 0 5 0 C5 0.33 5 0.66 5 1 C3.35 1 1.7 1 0 1 C0 0.67 0 0.34 0 0 Z " fill="#000000" transform="translate(154,73)"/>
<path d="M0 0 C1 4 1 4 1 4 Z " fill="#000000" transform="translate(187,432)"/>
<path d="M0 0 C1 4 1 4 1 4 Z " fill="#000000" transform="translate(166,398)"/>
<path d="M0 0 C1 4 1 4 1 4 Z " fill="#DF0000" transform="translate(203,246)"/>
<path d="M0 0 C4 1 4 1 4 1 Z " fill="#000000" transform="translate(424,199)"/>
<path d="M0 0 C4 1 4 1 4 1 Z " fill="#000000" transform="translate(156,104)"/>
<path d="M0 0 C3 1 3 1 3 1 Z " fill="#000000" transform="translate(224,446)"/>
<path d="" fill="#000000" transform="translate(0,0)"/>
<path d="" fill="#000000" transform="translate(0,0)"/>
<path d="" fill="#000000" transform="translate(0,0)"/>
<path d="M0 0 C3 1 3 1 3 1 Z " fill="#000000" transform="translate(261,420)"/>
<path d="" fill="#FF0000" transform="translate(0,0)"/>
<path d="M0 0 C3 1 3 1 3 1 Z " fill="#FF0000" transform="translate(109,286)"/>
<path d="" fill="#000000" transform="translate(0,0)"/>
<path d="" fill="#FF0000" transform="translate(0,0)"/>
<path d="" fill="#000000" transform="translate(0,0)"/>
<path d="" fill="#FF0000" transform="translate(0,0)"/>
<path d="M0 0 C3 1 3 1 3 1 Z " fill="#000000" transform="translate(106,148)"/>
<path d="" fill="#FF0000" transform="translate(0,0)"/>
<path d="M0 0 C3 1 3 1 3 1 Z " fill="#000000" transform="translate(88,144)"/>
<path d="" fill="#000000" transform="translate(0,0)"/>
<path d="" fill="#000000" transform="translate(0,0)"/>
<path d="" fill="#000000" transform="translate(0,0)"/>
<path d="" fill="#000000" transform="translate(0,0)"/>
<path d="" fill="#000000" transform="translate(0,0)"/>
<path d="" fill="#000000" transform="translate(0,0)"/>
<path d="" fill="#000000" transform="translate(0,0)"/>
<path d="" fill="#000000" transform="translate(0,0)"/>
<path d="M0 0 C2 1 2 1 2 1 Z " fill="#000000" transform="translate(266,420)"/>
<path d="M0 0 C2 1 2 1 2 1 Z " fill="#FF0000" transform="translate(235,403)"/>
<path d="M0 0 C2 1 2 1 2 1 Z " fill="#000000" transform="translate(384,391)"/>
<path d="M0 0 C2 1 2 1 2 1 Z " fill="#FF0000" transform="translate(320,383)"/>
<path d="M0 0 C2 1 2 1 2 1 Z " fill="#FF0000" transform="translate(299,383)"/>
<path d="" fill="#000000" transform="translate(0,0)"/>
<path d="" fill="#000000" transform="translate(0,0)"/>
<path d="M0 0 C2 1 2 1 2 1 Z " fill="#000000" transform="translate(94,347)"/>
<path d="" fill="#000000" transform="translate(0,0)"/>
<path d="M0 0 C2 1 2 1 2 1 Z " fill="#000000" transform="translate(400,333)"/>
<path d="M0 0 C2 1 2 1 2 1 Z " fill="#FF0000" transform="translate(175,301)"/>
<path d="M0 0 C2 1 2 1 2 1 Z " fill="#FF0000" transform="translate(287,293)"/>
<path d="M0 0 C2 1 2 1 2 1 Z " fill="#FF0000" transform="translate(275,293)"/>
<path d="M0 0 C2 1 2 1 2 1 Z " fill="#FF0000" transform="translate(113,285)"/>
<path d="M0 0 C2 1 2 1 2 1 Z " fill="#FF0000" transform="translate(123,282)"/>
<path d="" fill="#FF0000" transform="translate(0,0)"/>
<path d="" fill="#FF0000" transform="translate(0,0)"/>
<path d="" fill="#FF0000" transform="translate(0,0)"/>
<path d="M0 0 C2 1 2 1 2 1 Z " fill="#FF0000" transform="translate(383,250)"/>
<path d="M0 0 C2 1 2 1 2 1 Z " fill="#FF0000" transform="translate(360,250)"/>
<path d="M0 0 C2 1 2 1 2 1 Z " fill="#FF0000" transform="translate(388,245)"/>
<path d="M0 0 C2 1 2 1 2 1 Z " fill="#FF0000" transform="translate(357,245)"/>
<path d="" fill="#FF0000" transform="translate(0,0)"/>
<path d="" fill="#000000" transform="translate(0,0)"/>
<path d="" fill="#000000" transform="translate(0,0)"/>
<path d="" fill="#000000" transform="translate(0,0)"/>
<path d="M0 0 C2 1 2 1 2 1 Z " fill="#000000" transform="translate(422,178)"/>
<path d="" fill="#000000" transform="translate(0,0)"/>
<path d="" fill="#000000" transform="translate(0,0)"/>
<path d="M0 0 C2 1 2 1 2 1 Z " fill="#BF0000" transform="translate(139,160)"/>
<path d="" fill="#FF0000" transform="translate(0,0)"/>
<path d="M0 0 C2 1 2 1 2 1 Z " fill="#000000" transform="translate(103,147)"/>
<path d="M0 0 C2 1 2 1 2 1 Z " fill="#FF0000" transform="translate(212,108)"/>
<path d="M0 0 C2 1 2 1 2 1 Z " fill="#FF0000" transform="translate(181,108)"/>
<path d="" fill="#000000" transform="translate(0,0)"/>
<path d="" fill="#000000" transform="translate(0,0)"/>
<path d="" fill="#000000" transform="translate(0,0)"/>
<path d="" fill="#000000" transform="translate(0,0)"/>
<path d="" fill="#000000" transform="translate(0,0)"/>
<path d="" fill="#000000" transform="translate(0,0)"/>
<path d="M0 0 C2 1 2 1 2 1 Z " fill="#000000" transform="translate(338,65)"/>
<path d="" fill="#000000" transform="translate(0,0)"/>
<path d="" fill="#000000" transform="translate(0,0)"/>
<path d="" fill="#000000" transform="translate(0,0)"/>
<path d="" fill="#000000" transform="translate(0,0)"/>
<path d="" fill="#000000" transform="translate(0,0)"/>
<path d="" fill="#000000" transform="translate(0,0)"/>
<path d="" fill="#000000" transform="translate(0,0)"/>
<path d="" fill="#000000" transform="translate(0,0)"/>
<path d="" fill="#000000" transform="translate(0,0)"/>
<path d="" fill="#000000" transform="translate(0,0)"/>
<path d="" fill="#000000" transform="translate(0,0)"/>
<path d="" fill="#000000" transform="translate(0,0)"/>
<path d="" fill="#000000" transform="translate(0,0)"/>
<path d="" fill="#000000" transform="translate(0,0)"/>
<path d="" fill="#000000" transform="translate(0,0)"/>
<path d="" fill="#000000" transform="translate(0,0)"/>
<path d="" fill="#FF0000" transform="translate(0,0)"/>
<path d="" fill="#000000" transform="translate(0,0)"/>
<path d="" fill="#FF0000" transform="translate(0,0)"/>
<path d="" fill="#000000" transform="translate(0,0)"/>
<path d="" fill="#000000" transform="translate(0,0)"/>
<path d="" fill="#000000" transform="translate(0,0)"/>
<path d="" fill="#000000" transform="translate(0,0)"/>
<path d="" fill="#FF0000" transform="translate(0,0)"/>
<path d="" fill="#FF0000" transform="translate(0,0)"/>
<path d="" fill="#000000" transform="translate(0,0)"/>
<path d="" fill="#000000" transform="translate(0,0)"/>
<path d="" fill="#000000" transform="translate(0,0)"/>
<path d="" fill="#FF0000" transform="translate(0,0)"/>
<path d="" fill="#FF0000" transform="translate(0,0)"/>
<path d="" fill="#000000" transform="translate(0,0)"/>
<path d="" fill="#FF0000" transform="translate(0,0)"/>
<path d="" fill="#000000" transform="translate(0,0)"/>
<path d="" fill="#FF0000" transform="translate(0,0)"/>
<path d="" fill="#000000" transform="translate(0,0)"/>
<path d="" fill="#000000" transform="translate(0,0)"/>
<path d="" fill="#000000" transform="translate(0,0)"/>
<path d="" fill="#FF0000" transform="translate(0,0)"/>
<path d="" fill="#FF0000" transform="translate(0,0)"/>
<path d="" fill="#000000" transform="translate(0,0)"/>
<path d="" fill="#FF0000" transform="translate(0,0)"/>
<path d="" fill="#FF0000" transform="translate(0,0)"/>
<path d="" fill="#000000" transform="translate(0,0)"/>
<path d="" fill="#FF0000" transform="translate(0,0)"/>
<path d="" fill="#FF0000" transform="translate(0,0)"/>
<path d="" fill="#000000" transform="translate(0,0)"/>
<path d="" fill="#000000" transform="translate(0,0)"/>
<path d="" fill="#FF0000" transform="translate(0,0)"/>
<path d="" fill="#FF0000" transform="translate(0,0)"/>
<path d="" fill="#800000" transform="translate(0,0)"/>
<path d="" fill="#FF0000" transform="translate(0,0)"/>
<path d="" fill="#FF0000" transform="translate(0,0)"/>
<path d="" fill="#FF0000" transform="translate(0,0)"/>
<path d="" fill="#FF0000" transform="translate(0,0)"/>
<path d="" fill="#FF0000" transform="translate(0,0)"/>
<path d="" fill="#FF0000" transform="translate(0,0)"/>
<path d="" fill="#FF0000" transform="translate(0,0)"/>
<path d="" fill="#FF0000" transform="translate(0,0)"/>
<path d="" fill="#FF0000" transform="translate(0,0)"/>
<path d="" fill="#FF0000" transform="translate(0,0)"/>
<path d="" fill="#FF0000" transform="translate(0,0)"/>
<path d="" fill="#FF0000" transform="translate(0,0)"/>
<path d="" fill="#FF0000" transform="translate(0,0)"/>
<path d="" fill="#FF0000" transform="translate(0,0)"/>
<path d="" fill="#FF0000" transform="translate(0,0)"/>
<path d="" fill="#FF0000" transform="translate(0,0)"/>
<path d="" fill="#FF0000" transform="translate(0,0)"/>
<path d="" fill="#FF0000" transform="translate(0,0)"/>
<path d="" fill="#FF0000" transform="translate(0,0)"/>
<path d="" fill="#FF0000" transform="translate(0,0)"/>
<path d="" fill="#000000" transform="translate(0,0)"/>
<path d="" fill="#FF0000" transform="translate(0,0)"/>
<path d="" fill="#FF0000" transform="translate(0,0)"/>
<path d="" fill="#FF0000" transform="translate(0,0)"/>
<path d="" fill="#000000" transform="translate(0,0)"/>
<path d="" fill="#000000" transform="translate(0,0)"/>
<path d="" fill="#FF0000" transform="translate(0,0)"/>
<path d="" fill="#FF0000" transform="translate(0,0)"/>
<path d="" fill="#FF0000" transform="translate(0,0)"/>
<path d="" fill="#FF0000" transform="translate(0,0)"/>
<path d="" fill="#FF0000" transform="translate(0,0)"/>
<path d="" fill="#000000" transform="translate(0,0)"/>
<path d="" fill="#000000" transform="translate(0,0)"/>
<path d="" fill="#FF0000" transform="translate(0,0)"/>
<path d="" fill="#000000" transform="translate(0,0)"/>
<path d="" fill="#FF0000" transform="translate(0,0)"/>
<path d="" fill="#FF0000" transform="translate(0,0)"/>
<path d="" fill="#FF0000" transform="translate(0,0)"/>
<path d="" fill="#000000" transform="translate(0,0)"/>
<path d="" fill="#000000" transform="translate(0,0)"/>
<path d="" fill="#FF0000" transform="translate(0,0)"/>
<path d="" fill="#000000" transform="translate(0,0)"/>
<path d="" fill="#000000" transform="translate(0,0)"/>
<path d="" fill="#FF0000" transform="translate(0,0)"/>
<path d="" fill="#000000" transform="translate(0,0)"/>
<path d="" fill="#000000" transform="translate(0,0)"/>
<path d="" fill="#FF0000" transform="translate(0,0)"/>
<path d="" fill="#FF0000" transform="translate(0,0)"/>
<path d="" fill="#000000" transform="translate(0,0)"/>
<path d="" fill="#000000" transform="translate(0,0)"/>
<path d="" fill="#000000" transform="translate(0,0)"/>
<path d="" fill="#000000" transform="translate(0,0)"/>
<path d="" fill="#000000" transform="translate(0,0)"/>
<path d="" fill="#000000" transform="translate(0,0)"/>
<path d="" fill="#000000" transform="translate(0,0)"/>
<path d="" fill="#000000" transform="translate(0,0)"/>
<path d="" fill="#000000" transform="translate(0,0)"/>
<path d="" fill="#FF0000" transform="translate(0,0)"/>
<path d="" fill="#FF0000" transform="translate(0,0)"/>
<path d="" fill="#FF0000" transform="translate(0,0)"/>
<path d="" fill="#000000" transform="translate(0,0)"/>
<path d="" fill="#FF0000" transform="translate(0,0)"/>
<path d="" fill="#FF0000" transform="translate(0,0)"/>
<path d="" fill="#000000" transform="translate(0,0)"/>
<path d="" fill="#000000" transform="translate(0,0)"/>
<path d="" fill="#000000" transform="translate(0,0)"/>
<path d="" fill="#000000" transform="translate(0,0)"/>
<path d="" fill="#000000" transform="translate(0,0)"/>
<path d="" fill="#000000" transform="translate(0,0)"/>
<path d="" fill="#000000" transform="translate(0,0)"/>
<path d="" fill="#000000" transform="translate(0,0)"/>
<path d="" fill="#000000" transform="translate(0,0)"/>
<path d="" fill="#FF0000" transform="translate(0,0)"/>
<path d="" fill="#FF0000" transform="translate(0,0)"/>
<path d="" fill="#000000" transform="translate(0,0)"/>
<path d="" fill="#FF0000" transform="translate(0,0)"/>
<path d="" fill="#FF0000" transform="translate(0,0)"/>
<path d="" fill="#000000" transform="translate(0,0)"/>
<path d="" fill="#000000" transform="translate(0,0)"/>
<path d="" fill="#000000" transform="translate(0,0)"/>
<path d="" fill="#000000" transform="translate(0,0)"/>
<path d="" fill="#000000" transform="translate(0,0)"/>
<path d="" fill="#000000" transform="translate(0,0)"/>
<path d="" fill="#000000" transform="translate(0,0)"/>
<path d="" fill="#000000" transform="translate(0,0)"/>
<path d="" fill="#000000" transform="translate(0,0)"/>
</svg>
